<?xml version="1.0" encoding="UTF-8"?>
<!DOCTYPE svg PUBLIC "-//W3C//DTD SVG 1.1//EN" "http://www.w3.org/Graphics/SVG/1.1/DTD/svg11.dtd">
<svg xmlns="http://www.w3.org/2000/svg" version="1.1" width="512px" height="512px" style="shape-rendering:geometricPrecision; text-rendering:geometricPrecision; image-rendering:optimizeQuality; fill-rule:evenodd; clip-rule:evenodd" xmlns:xlink="http://www.w3.org/1999/xlink">
<g><path style="opacity:0.973" fill="#000000" d="M 233.5,-0.5 C 248.5,-0.5 263.5,-0.5 278.5,-0.5C 378.272,12.4494 449.438,64.4494 492,155.5C 502.135,180.377 508.635,206.043 511.5,232.5C 511.5,247.5 511.5,262.5 511.5,277.5C 499.016,377.807 447.016,449.307 355.5,492C 330.316,502.296 304.316,508.796 277.5,511.5C 262.5,511.5 247.5,511.5 232.5,511.5C 130.434,498.225 58.6008,444.558 17,350.5C 8.0309,327.127 2.19757,303.127 -0.5,278.5C -0.5,263.167 -0.5,247.833 -0.5,232.5C 9.30698,148.242 49.6403,83.0754 120.5,37C 155.422,15.9704 193.088,3.4704 233.5,-0.5 Z M 243.5,42.5 C 335.673,41.9498 403.506,81.9498 447,162.5C 478.377,232.213 475.043,300.213 437,366.5C 394.447,431.71 333.947,465.71 255.5,468.5C 179.577,465.798 120.077,433.465 77,371.5C 32.9306,297.819 31.2639,223.152 72,147.5C 111.767,84.3544 168.933,49.3544 243.5,42.5 Z"/></g>
<g><path style="opacity:0.968" fill="#000000" d="M 249.5,148.5 C 261.993,146.494 270.826,151.161 276,162.5C 277.46,186.114 277.96,209.781 277.5,233.5C 301.219,233.04 324.886,233.54 348.5,235C 360,240.166 364.5,248.999 362,261.5C 359.928,268.573 355.428,273.406 348.5,276C 324.886,277.46 301.219,277.96 277.5,277.5C 277.96,301.219 277.46,324.886 276,348.5C 270.834,360 262.001,364.5 249.5,362C 242.427,359.928 237.594,355.428 235,348.5C 233.54,324.886 233.04,301.219 233.5,277.5C 209.781,277.96 186.114,277.46 162.5,276C 151,270.834 146.5,262.001 149,249.5C 151.072,242.427 155.572,237.594 162.5,235C 186.114,233.54 209.781,233.04 233.5,233.5C 233.333,211.164 233.5,188.831 234,166.5C 235.839,157.503 241.006,151.503 249.5,148.5 Z"/></g>
</svg>
