<?xml version="1.0" encoding="utf-8"?>
<!-- Generator: Adobe Illustrator 27.1.0, SVG Export Plug-In . SVG Version: 6.00 Build 0)  -->
<svg version="1.1" id="Layer_1" xmlns="http://www.w3.org/2000/svg" xmlns:xlink="http://www.w3.org/1999/xlink" x="0px" y="0px"
	 viewBox="0 0 512 512" style="enable-background:new 0 0 512 512;" xml:space="preserve">
<style type="text/css">
	.st0{opacity:0.968;enable-background:new    ;}
</style>
<g>
	<path class="st0" d="M490.7,178L490.7,178c-8.5-48.1-35.7-77.2-80.9-89.4c-1.9-1-3.7-2.9-3.7-4.7c0-16.1,0-31-1-47.1v-1
		C401.3,17,390.9,5.7,373,1c-1,0-1,0-1,0C266.5,0,161.2,0,55.7,0c-1,0-1,0-1.9,0c-16.9,4.7-27.3,16.1-32,33c0,1,0,1,0,1
		c-1,148.7-1,296.5,0,444.3v1c4.7,16.9,15.1,28.3,32,32h1c105.5,1,210.8,1,316.3,0c1,0,1,0,1,0c17.9-4.7,29.1-16.9,32-34.9v-1
		c0-58.4,1-116.7,1.9-175.1c0-1.9,1-3.7,3.7-4.7C467.1,278.7,493.5,238.2,490.7,178z M362.7,465.1c0,2.9-1.9,4.7-4.7,4.7H70
		c-2.9,0-4.7-1.9-4.7-4.7V49c0-2.9,1.9-4.7,4.7-4.7h288c2.9,0,4.7,1.9,4.7,4.7v34.9c0,1.9-1.9,4.7-3.7,4.7
		c-41.5,11.3-68.7,37.6-79.1,80.1v1c-8.5,56.5,13.2,97.9,64,123.3h1c4.7,1.9,9.5,2.9,14.1,4.7c1.9,1,3.7,2.9,3.7,4.7
		C361.8,355.9,362.7,410.5,362.7,465.1z M447.5,202.5c0,2.9-1.9,4.7-4.7,4.7h-37.6c-2.9,0-4.7,1.9-4.7,4.7v38.6
		c0,2.9-1.9,4.7-4.7,4.7H375c-2.9,0-4.7-1.9-4.7-4.7v-38.6c0-2.9-1.9-4.7-4.7-4.7H328c-2.9,0-4.7-1.9-4.7-4.7v-20.7
		c0-2.9,1.9-4.7,4.7-4.7h37.6c2.9,0,4.7-1.9,4.7-4.7v-37.6c0-2.9,1.9-4.7,4.7-4.7h20.7c2.9,0,4.7,1.9,4.7,4.7v37.6
		c0,2.9,1.9,4.7,4.7,4.7h37.6c2.9,0,4.7,1.9,4.7,4.7L447.5,202.5L447.5,202.5z"/>
	<path class="st0" d="M234.7,122.5c-43.3,0-85.7,0-129,0c0,15.1,0,29.1,0,44.2c43.3,0,85.7,0,129,0
		C234.7,151.7,234.7,136.6,234.7,122.5z"/>
	<path class="st0" d="M234.7,207.2c-43.3,0-85.7,0-129,0c0,15.1,0,29.1,0,44.2c43.3,0,85.7,0,129,0
		C234.7,236.3,234.7,222.3,234.7,207.2z"/>
	<path class="st0" d="M278,293.7c-57.4,0-114.8,0-173.2,0c0,15.1,0,29.1,0,44.2c57.4,0,114.8,0,173.2,0C278,323,278,307.9,278,293.7
		z"/>
	<path class="st0" d="M105.8,422.7c71.6,0,144.1,0,215.5,0c0-15.1,0-29.1,0-44.2c-71.6,0-144.1,0-215.5,0
		C105.8,393.6,105.8,407.7,105.8,422.7z"/>
</g>
</svg>
