<?xml version="1.0" encoding="utf-8"?>
<!-- Generator: Adobe Illustrator 27.1.0, SVG Export Plug-In . SVG Version: 6.00 Build 0)  -->
<svg version="1.1" id="Layer_1" xmlns="http://www.w3.org/2000/svg" xmlns:xlink="http://www.w3.org/1999/xlink" x="0px" y="0px"
	 viewBox="0 0 512 512" style="enable-background:new 0 0 512 512;" xml:space="preserve">
<path d="M479.5,447.6H117.6c-29.4,0-53.2-23.8-53.2-53.2V32.5c0-17.6-14.3-31.9-31.9-31.9S0.6,14.8,0.6,32.5v361.9
	C0.6,459,53,511.4,117.6,511.4h361.9c17.6,0,31.9-14.3,31.9-31.9S497.2,447.6,479.5,447.6z"/>
<path d="M202.8,192.1c-17.6,0-31.9,14.3-31.9,31.9v149c0,17.6,14.3,31.9,31.9,31.9s31.9-14.3,31.9-31.9v-149
	C234.7,206.4,220.4,192.1,202.8,192.1z"/>
<path d="M298.6,287.9v85.1c0,17.6,14.3,31.9,31.9,31.9s31.9-14.3,31.9-31.9v-85.1c0-17.6-14.3-31.9-31.9-31.9
	S298.6,270.3,298.6,287.9z"/>
<path d="M426.3,202.8v170.3c0,17.6,14.3,31.9,31.9,31.9s31.9-14.3,31.9-31.9V202.8c0-17.6-14.3-31.9-31.9-31.9
	S426.3,185.1,426.3,202.8z"/>
<path d="M128.3,160.2c7.2,0,14.3-2.5,19.9-7l48.5-38.8c20.3-16.3,49.6-14.7,67.9,3.7c42.4,41.9,109.7,44.6,155.4,6.4l80.1-67.8
	c14-10.8,16.5-30.8,5.7-44.8C495.1-2,475-4.5,461.1,6.2c-0.8,0.6-1.5,1.2-2.2,1.9l-80.1,67.8c-20.3,17-50.2,15.7-69-3
	c-41.3-41.5-107.3-45.1-153-8.5l-48.5,38.9c-13.8,11-16,31.1-5,44.9C109.4,155.8,118.6,160.2,128.3,160.2z"/>
</svg>
