<?xml version="1.0" encoding="utf-8"?>
<!-- Generator: Adobe Illustrator 27.1.0, SVG Export Plug-In . SVG Version: 6.00 Build 0)  -->
<svg version="1.1" id="Layer_1" xmlns="http://www.w3.org/2000/svg" xmlns:xlink="http://www.w3.org/1999/xlink" x="0px" y="0px"
	 viewBox="0 0 512 512" style="enable-background:new 0 0 512 512;" xml:space="preserve">
<style type="text/css">
	
		.st0{opacity:0.974;fill-rule:evenodd;clip-rule:evenodd;stroke:#000000;stroke-width:0.5;stroke-miterlimit:10;enable-background:new    ;}
</style>
<g>
	<path class="st0" d="M249.5-0.5c4,0,8,0,12,0c5.1,2.6,8.6,6.6,10.5,12c0.3,17.3,0.7,34.7,1,52c64.1,10.4,106.4,46.4,127,108
		c1.7,6.3,3,12.6,4,19c1.3,30.3,1.9,60.6,2,91c3.6,42.6,22,77.3,55,104c10,14.4,11,29.4,3,45c-4.7,7.4-11.2,12.6-19.5,15.5
		c-36.6,1.5-73.3,2-110,1.5c-8.6,35.3-30.6,56.6-66,64c-8.7,0-17.3,0-26,0c-34.5-8-56.5-29.2-66-63.5c-36.4,0-72.7-0.7-109-2
		c-21.3-9.4-29.1-25.6-23.5-48.5c1.3-2.7,2.7-5.3,4-8c5.7-7,12-13.3,19-19c21.3-23.2,33.9-50.6,38-82c0.9-33.3,1.9-66.7,3-100
		c10.6-55.2,41.7-93.7,93.5-115.5c12.2-4.4,24.7-7.5,37.5-9.5c0.3-17.7,0.7-35.3,1-53C241.6,5.4,244.8,1.7,249.5-0.5z M254.5,95.5
		c56.9,3,94.7,31.4,113.5,85c1.8,6.6,3.2,13.2,4,20c0.3,27.7,0.7,55.3,1,83c4,49.6,24.6,90.6,62,123c2.2,2.7,2,5.2-0.5,7.5
		c-118.3,1.7-236.6,2-355,1c-3.6-1.3-4.8-3.8-3.5-7.5c35.3-30.7,56-69.3,62-116c0.1-31,0.8-62,2-93c5.7-38.6,25.2-67.7,58.5-87.5
		C216.1,101.4,234.8,96.3,254.5,95.5z M211.5,447.5c29.7-0.2,59.3,0,89,0.5c-11.9,24.6-31.3,34.3-58,29
		C227.4,472.1,217.1,462.2,211.5,447.5z"/>
</g>
</svg>
