<?xml version="1.0" encoding="UTF-8"?>
<!DOCTYPE svg PUBLIC "-//W3C//DTD SVG 1.1//EN" "http://www.w3.org/Graphics/SVG/1.1/DTD/svg11.dtd">
<svg xmlns="http://www.w3.org/2000/svg" version="1.1" width="512px" height="512px" style="shape-rendering:geometricPrecision; text-rendering:geometricPrecision; image-rendering:optimizeQuality; fill-rule:evenodd; clip-rule:evenodd" xmlns:xlink="http://www.w3.org/1999/xlink">
<g><path style="opacity:0.984" fill="#000000" d="M 101.5,-0.5 C 219.5,-0.5 337.5,-0.5 455.5,-0.5C 464.925,2.42863 470.759,8.76196 473,18.5C 473.667,142.167 473.667,265.833 473,389.5C 470.63,396.546 466.63,402.546 461,407.5C 447.385,431.435 450.385,453.101 470,472.5C 475.287,483.722 474.287,494.388 467,504.5C 463.486,507.5 459.653,509.833 455.5,511.5C 337.5,511.5 219.5,511.5 101.5,511.5C 65.1497,503.648 43.9831,481.314 38,444.5C 37.8333,381.5 37.6667,318.5 37.5,255.5C 37.3456,190.14 37.8456,124.807 39,59.5C 47.3108,26.3542 68.1441,6.35417 101.5,-0.5 Z M 108.5,51.5 C 212.833,51.5 317.167,51.5 421.5,51.5C 421.5,153.5 421.5,255.5 421.5,357.5C 316.499,357.333 211.499,357.5 106.5,358C 100.743,358.647 95.2425,360.147 90,362.5C 89.3333,265.5 89.3333,168.5 90,71.5C 91.9101,60.761 98.0767,54.0943 108.5,51.5 Z M 217.5,153.5 C 242.833,153.5 268.167,153.5 293.5,153.5C 293.5,170.167 293.5,186.833 293.5,203.5C 268.167,203.5 242.833,203.5 217.5,203.5C 217.5,186.833 217.5,170.167 217.5,153.5 Z M 109.5,409.5 C 207.501,409.333 305.501,409.5 403.5,410C 398.211,426.337 398.211,442.67 403.5,459C 305.167,459.667 206.833,459.667 108.5,459C 92.3267,453.494 86.4934,442.328 91,425.5C 94.6085,417.048 100.775,411.715 109.5,409.5 Z"/></g>
<g><path style="opacity:0.986" fill="#000000" d="M 165.5,101.5 C 225.5,101.5 285.5,101.5 345.5,101.5C 345.5,152.833 345.5,204.167 345.5,255.5C 285.5,255.5 225.5,255.5 165.5,255.5C 165.5,204.167 165.5,152.833 165.5,101.5 Z M 217.5,153.5 C 217.5,170.167 217.5,186.833 217.5,203.5C 242.833,203.5 268.167,203.5 293.5,203.5C 293.5,186.833 293.5,170.167 293.5,153.5C 268.167,153.5 242.833,153.5 217.5,153.5 Z"/></g>
</svg>
