<?xml version="1.0" encoding="UTF-8"?>
<!DOCTYPE svg PUBLIC "-//W3C//DTD SVG 1.1//EN" "http://www.w3.org/Graphics/SVG/1.1/DTD/svg11.dtd">
<svg xmlns="http://www.w3.org/2000/svg" version="1.1" width="512px" height="512px" style="shape-rendering:geometricPrecision; text-rendering:geometricPrecision; image-rendering:optimizeQuality; fill-rule:evenodd; clip-rule:evenodd" xmlns:xlink="http://www.w3.org/1999/xlink">
<g><path style="opacity:0.98" fill="#000000" d="M 131.5,-0.5 C 135.5,-0.5 139.5,-0.5 143.5,-0.5C 148.712,1.87225 152.878,5.53892 156,10.5C 157.417,19.7521 157.917,29.0854 157.5,38.5C 222.833,38.5 288.167,38.5 353.5,38.5C 353.083,29.0854 353.583,19.7521 355,10.5C 358.122,5.53892 362.288,1.87225 367.5,-0.5C 371.5,-0.5 375.5,-0.5 379.5,-0.5C 386.058,1.55503 390.558,5.88836 393,12.5C 394.297,21.1144 394.797,29.7811 394.5,38.5C 445.863,33.9174 482.696,54.5841 505,100.5C 507.662,108.163 509.828,115.829 511.5,123.5C 511.5,224.5 511.5,325.5 511.5,426.5C 503.77,467.406 480.103,494.573 440.5,508C 435.404,509.36 430.404,510.526 425.5,511.5C 312.167,511.5 198.833,511.5 85.5,511.5C 48.0979,504.944 21.5979,484.277 6,449.5C 3.07375,441.908 0.907084,434.241 -0.5,426.5C -0.5,325.5 -0.5,224.5 -0.5,123.5C 9.67355,75.4949 39.0069,47.3283 87.5,39C 97.1609,38.5002 106.828,38.3335 116.5,38.5C 116.203,29.7811 116.703,21.1144 118,12.5C 120.442,5.88836 124.942,1.55503 131.5,-0.5 Z M 90.5,79.5 C 99.1667,79.5 107.833,79.5 116.5,79.5C 116.333,92.8375 116.5,106.171 117,119.5C 120.381,135.113 129.881,140.947 145.5,137C 151.061,134.438 154.894,130.272 157,124.5C 157.5,109.504 157.667,94.5037 157.5,79.5C 222.833,79.5 288.167,79.5 353.5,79.5C 353.333,94.5037 353.5,109.504 354,124.5C 360.991,138.211 371.491,141.711 385.5,135C 390.5,131.005 393.334,125.838 394,119.5C 394.5,106.171 394.667,92.8375 394.5,79.5C 423.71,74.936 446.543,84.6026 463,108.5C 468.003,117.512 470.67,127.179 471,137.5C 471.5,143.825 471.666,150.158 471.5,156.5C 327.5,156.5 183.5,156.5 39.5,156.5C 36.7793,134.365 42.2793,114.699 56,97.5C 65.6926,87.9048 77.1926,81.9048 90.5,79.5 Z M 39.5,197.5 C 183.5,197.5 327.5,197.5 471.5,197.5C 471.667,269.501 471.5,341.501 471,413.5C 468.457,444.042 452.29,462.876 422.5,470C 311.167,470.667 199.833,470.667 88.5,470C 58.7098,462.876 42.5431,444.042 40,413.5C 39.5,341.501 39.3333,269.501 39.5,197.5 Z"/></g>
<g><path style="opacity:0.977" fill="#000000" d="M 111.5,255.5 C 129.902,255.039 148.235,255.539 166.5,257C 176.406,263.384 179.573,272.217 176,283.5C 173.414,289.088 169.247,292.921 163.5,295C 145.101,295.96 126.768,295.627 108.5,294C 96.8801,286.122 94.3801,275.955 101,263.5C 103.855,259.789 107.355,257.123 111.5,255.5 Z"/></g>
<g><path style="opacity:0.976" fill="#000000" d="M 229.5,255.5 C 247.902,255.039 266.235,255.539 284.5,257C 294.406,263.384 297.573,272.217 294,283.5C 291.414,289.088 287.247,292.921 281.5,295C 263.101,295.96 244.768,295.627 226.5,294C 215.279,286.688 212.446,276.855 218,264.5C 221.183,260.462 225.016,257.462 229.5,255.5 Z"/></g>
<g><path style="opacity:0.977" fill="#000000" d="M 347.5,255.5 C 365.902,255.039 384.235,255.539 402.5,257C 414.121,264.836 416.621,275.003 410,287.5C 407.313,291.194 403.813,293.694 399.5,295C 381.101,295.96 362.768,295.627 344.5,294C 332.988,286.105 330.488,275.939 337,263.5C 339.855,259.789 343.355,257.123 347.5,255.5 Z"/></g>
<g><path style="opacity:0.963" fill="#000000" d="M 116.5,372.5 C 130.171,372.333 143.837,372.5 157.5,373C 172.276,375.115 178.776,383.615 177,398.5C 174.901,405.598 170.401,410.432 163.5,413C 146.167,413.667 128.833,413.667 111.5,413C 98.0393,406.564 94.2059,396.397 100,382.5C 104.145,376.688 109.645,373.354 116.5,372.5 Z"/></g>
<g><path style="opacity:0.962" fill="#000000" d="M 234.5,372.5 C 248.171,372.333 261.837,372.5 275.5,373C 290.276,375.115 296.776,383.615 295,398.5C 292.928,405.573 288.428,410.406 281.5,413C 264.167,413.667 246.833,413.667 229.5,413C 215.837,406.69 212.004,396.523 218,382.5C 222.126,376.696 227.626,373.362 234.5,372.5 Z"/></g>
<g><path style="opacity:0.963" fill="#000000" d="M 353.5,372.5 C 367.171,372.333 380.837,372.5 394.5,373C 412.67,377.508 417.836,388.342 410,405.5C 407.258,409.116 403.758,411.616 399.5,413C 381.101,413.96 362.768,413.627 344.5,412C 332.988,404.105 330.488,393.939 337,381.5C 341.248,375.963 346.748,372.963 353.5,372.5 Z"/></g>
</svg>
