<?xml version="1.0" encoding="UTF-8"?>
<!DOCTYPE svg PUBLIC "-//W3C//DTD SVG 1.1//EN" "http://www.w3.org/Graphics/SVG/1.1/DTD/svg11.dtd">
<svg xmlns="http://www.w3.org/2000/svg" version="1.1" width="512px" height="512px" style="shape-rendering:geometricPrecision; text-rendering:geometricPrecision; image-rendering:optimizeQuality; fill-rule:evenodd; clip-rule:evenodd" xmlns:xlink="http://www.w3.org/1999/xlink">
<g><path style="opacity:0.973" fill="#000000" d="M 84.5,-0.5 C 91.8333,-0.5 99.1667,-0.5 106.5,-0.5C 142.117,9.65314 158.283,33.3198 155,70.5C 152.689,81.6212 147.856,91.4546 140.5,100C 168.277,115.464 184.777,138.964 190,170.5C 190.667,183.833 190.667,197.167 190,210.5C 188.5,214.667 185.667,217.5 181.5,219C 124.167,219.667 66.8333,219.667 9.5,219C 5.33333,217.5 2.5,214.667 1,210.5C -4.86187,176.269 3.13813,145.936 25,119.5C 32.5101,111.667 41.0101,105.167 50.5,100C 34.9852,81.4194 31.1519,60.5861 39,37.5C 47.7111,16.9441 62.8777,4.27743 84.5,-0.5 Z M 88.5,30.5 C 113.644,29.4764 125.477,41.4764 124,66.5C 116.555,86.2176 102.722,92.7176 82.5,86C 66.6638,75.8163 62.4971,61.983 70,44.5C 74.526,37.5054 80.6926,32.8387 88.5,30.5 Z M 94.5,119.5 C 126.853,121.355 148.02,137.688 158,168.5C 159.163,175.464 159.997,182.464 160.5,189.5C 117.167,189.5 73.8333,189.5 30.5,189.5C 31.084,155.477 47.4173,132.977 79.5,122C 84.6428,121.162 89.6428,120.328 94.5,119.5 Z"/></g>
<g><path style="opacity:0.997" fill="#000000" d="M 209.5,-0.5 C 306.833,-0.5 404.167,-0.5 501.5,-0.5C 509.778,4.08125 512.611,11.0812 510,20.5C 508.5,24.6667 505.667,27.5 501.5,29C 494.508,29.4996 487.508,29.6663 480.5,29.5C 480.667,86.501 480.5,143.501 480,200.5C 478.5,204.667 475.667,207.5 471.5,209C 394.167,209.667 316.833,209.667 239.5,209C 235.333,207.5 232.5,204.667 231,200.5C 230.5,143.501 230.333,86.501 230.5,29.5C 223.492,29.6663 216.492,29.4996 209.5,29C 201.085,24.6524 198.252,17.8191 201,8.5C 202.688,4.31481 205.521,1.31481 209.5,-0.5 Z M 260.5,29.5 C 323.833,29.5 387.167,29.5 450.5,29.5C 450.5,79.5 450.5,129.5 450.5,179.5C 387.167,179.5 323.833,179.5 260.5,179.5C 260.5,129.5 260.5,79.5 260.5,29.5 Z"/></g>
<g><path style="opacity:0.986" fill="#000000" d="M 299.5,59.5 C 336.835,59.3333 374.168,59.5 411.5,60C 419.915,64.3476 422.748,71.1809 420,80.5C 418.5,84.6667 415.667,87.5 411.5,89C 374.167,89.6667 336.833,89.6667 299.5,89C 290.525,83.8483 288.025,76.3483 292,66.5C 294.015,63.5883 296.515,61.255 299.5,59.5 Z"/></g>
<g><path style="opacity:0.986" fill="#000000" d="M 299.5,119.5 C 336.835,119.333 374.168,119.5 411.5,120C 419.915,124.348 422.748,131.181 420,140.5C 418.5,144.667 415.667,147.5 411.5,149C 374.167,149.667 336.833,149.667 299.5,149C 290.525,143.848 288.025,136.348 292,126.5C 294.015,123.588 296.515,121.255 299.5,119.5 Z"/></g>
<g><path style="opacity:0.974" fill="#000000" d="M 501.5,511.5 C 337.5,511.5 173.5,511.5 9.5,511.5C 5.52117,509.685 2.68784,506.685 1,502.5C -4.86187,468.269 3.13813,437.936 25,411.5C 32.5101,403.667 41.0101,397.167 50.5,392C 34.9852,373.419 31.1519,352.586 39,329.5C 49.6428,304.696 68.4761,292.029 95.5,291.5C 127.5,292.996 147.334,309.329 155,340.5C 158.011,359.966 153.178,377.132 140.5,392C 154.637,399.738 166.303,410.238 175.5,423.5C 184.697,410.238 196.363,399.738 210.5,392C 194.985,373.419 191.152,352.586 199,329.5C 209.643,304.696 228.476,292.029 255.5,291.5C 283.691,292.526 302.858,306.193 313,332.5C 319.339,354.631 315.172,374.465 300.5,392C 314.637,399.738 326.303,410.238 335.5,423.5C 344.697,410.238 356.363,399.738 370.5,392C 355.731,374.491 351.564,354.658 358,332.5C 370.59,301.946 393.424,288.446 426.5,292C 462.321,301.842 478.487,325.342 475,362.5C 472.689,373.621 467.856,383.455 460.5,392C 485.969,406.411 502.136,427.911 509,456.5C 510.566,471.793 510.899,487.126 510,502.5C 508.312,506.685 505.479,509.685 501.5,511.5 Z M 88.5,322.5 C 113.644,321.476 125.477,333.476 124,358.5C 116.555,378.218 102.722,384.718 82.5,378C 66.6638,367.816 62.4971,353.983 70,336.5C 74.526,329.505 80.6926,324.839 88.5,322.5 Z M 248.5,322.5 C 273.644,321.476 285.477,333.476 284,358.5C 276.555,378.218 262.722,384.718 242.5,378C 226.664,367.816 222.497,353.983 230,336.5C 234.526,329.505 240.693,324.839 248.5,322.5 Z M 408.5,322.5 C 433.644,321.476 445.477,333.476 444,358.5C 436.555,378.218 422.722,384.718 402.5,378C 386.664,367.816 382.497,353.983 390,336.5C 394.526,329.505 400.693,324.839 408.5,322.5 Z M 94.5,411.5 C 126.853,413.355 148.02,429.688 158,460.5C 159.163,467.464 159.997,474.464 160.5,481.5C 117.167,481.5 73.8333,481.5 30.5,481.5C 31.084,447.477 47.4173,424.977 79.5,414C 84.6428,413.162 89.6428,412.328 94.5,411.5 Z M 254.5,411.5 C 286.853,413.355 308.02,429.688 318,460.5C 319.163,467.464 319.997,474.464 320.5,481.5C 277.167,481.5 233.833,481.5 190.5,481.5C 191.084,447.477 207.417,424.977 239.5,414C 244.643,413.162 249.643,412.328 254.5,411.5 Z M 414.5,411.5 C 446.853,413.355 468.02,429.688 478,460.5C 479.163,467.464 479.997,474.464 480.5,481.5C 437.167,481.5 393.833,481.5 350.5,481.5C 351.084,447.477 367.417,424.977 399.5,414C 404.643,413.162 409.643,412.328 414.5,411.5 Z"/></g>
</svg>
