<?xml version="1.0" encoding="utf-8"?>
<!-- Generator: Adobe Illustrator 27.1.0, SVG Export Plug-In . SVG Version: 6.00 Build 0)  -->
<svg version="1.1" id="Layer_1" xmlns="http://www.w3.org/2000/svg" xmlns:xlink="http://www.w3.org/1999/xlink" x="0px" y="0px"
	 viewBox="0 0 512 512" style="enable-background:new 0 0 512 512;" xml:space="preserve">
<style type="text/css">
	.st0{opacity:0.981;fill-rule:evenodd;clip-rule:evenodd;enable-background:new    ;}
	.st1{opacity:0.975;fill-rule:evenodd;clip-rule:evenodd;enable-background:new    ;}
	.st2{opacity:0.971;fill-rule:evenodd;clip-rule:evenodd;enable-background:new    ;}
	.st3{opacity:0.955;fill-rule:evenodd;clip-rule:evenodd;enable-background:new    ;}
</style>
<g>
	<path class="st0" d="M194.3-0.4c40.8-0.2,81.6,0,122.3,0.6c20.3,3.7,36.9,13.5,49.9,29.3c37.7-1.4,68.7,11.9,93,39.9
		c11.8,15.9,18.5,33.8,20,53.7c0.8,98.6,0.8,197.3,0,295.9c-6.4,50.5-34.5,81.1-84.3,91.8c-81.1,0.8-162.3,0.8-243.4,0
		c-18.3-6-26.4-18.7-24.3-38.1c2.9-12.1,10.2-20.2,21.8-24.3c79.4-1.6,158.9-2.5,238.4-2.5c16.7-4.7,25.7-15.7,26.8-33.1
		c0.8-94,0.8-188.1,0-282.1c-2.1-20.2-13.1-31.4-33.1-33.7c-8.1,33.3-28.9,53.9-62.4,61.8c-21.2,1.4-42.4,2-63.7,1.9
		c-21.3,0.1-42.5-0.5-63.7-1.9c-33.5-7.9-54.3-28.5-62.4-61.8c-20,2.3-31,13.6-33.1,33.7c-0.4,87.4-0.8,174.8-1.2,262.2
		c-7.3,18.5-20.9,25.8-40.6,21.8c-12.8-4.5-20.5-13.4-23.1-26.8c-0.8-88.2-0.8-176.4,0-264.7c3.5-34.8,20-61.2,49.5-79.3
		c20-9.8,41.3-14.6,63.7-14.4C157.6,13.8,174.3,3.8,194.3-0.4z M203.1,64.5c35-0.2,69.9,0,104.9,0.6c10.3,5.1,13,12.8,8.1,23.1
		c-3.2,4.4-7.6,6.7-13.1,6.9c-31.6,0.8-63.3,0.8-94.9,0C194,92.1,189.6,84,195,70.7C197.4,68.2,200.1,66.1,203.1,64.5z"/>
</g>
<g>
	<path class="st1" d="M184.3,223c47.4-0.2,94.9,0,142.3,0.6c19.7,6.4,27.8,19.9,24.3,40.6c-3.7,12.4-11.8,20.1-24.3,23.1
		c-47.4,0.8-94.9,0.8-142.3,0c-19.7-6.4-27.8-19.9-24.3-40.6C163.9,234.3,172,226.4,184.3,223z"/>
</g>
<g>
	<path class="st2" d="M183.1,319.2c28.4-0.6,56.7,0,84.9,1.9c17.2,9,23.2,22.9,18.1,41.8c-4.7,10.9-12.8,17.8-24.3,20.6
		c-27.1,1.2-54.2,0.8-81.1-1.2c-17.2-7.5-24.1-20.6-20.6-39.3C163.8,331,171.5,323.1,183.1,319.2z"/>
</g>
<g>
	<path class="st3" d="M58.2,446.5c28,0.4,40.3,14.5,36.8,42.4c-9.5,20.7-25.2,27.1-46.8,19.4C30,495,26.5,478.6,37.7,459
		C43.2,452.4,50,448.2,58.2,446.5z"/>
</g>
</svg>
