<?xml version="1.0" encoding="UTF-8"?>
<!DOCTYPE svg PUBLIC "-//W3C//DTD SVG 1.1//EN" "http://www.w3.org/Graphics/SVG/1.1/DTD/svg11.dtd">
<svg xmlns="http://www.w3.org/2000/svg" version="1.1" width="512px" height="512px" style="shape-rendering:geometricPrecision; text-rendering:geometricPrecision; image-rendering:optimizeQuality; fill-rule:evenodd; clip-rule:evenodd" xmlns:xlink="http://www.w3.org/1999/xlink">
<g><path style="opacity:0.98" fill="#000000" d="M 182.5,-0.5 C 213.5,-0.5 244.5,-0.5 275.5,-0.5C 282.21,2.38267 286.71,7.38267 289,14.5C 289.5,26.1619 289.667,37.8286 289.5,49.5C 316.537,49.0537 343.537,49.5537 370.5,51C 405.843,61.011 426.343,84.1777 432,120.5C 432.167,147.167 432.333,173.833 432.5,200.5C 432.654,228.227 432.154,255.893 431,283.5C 425.667,294.065 417.167,297.899 405.5,295C 398.599,292.432 394.099,287.598 392,280.5C 391.667,228.5 391.333,176.5 391,124.5C 387.59,107.178 377.423,96.0116 360.5,91C 336.865,89.5851 313.198,89.0851 289.5,89.5C 291.45,125.823 275.116,148.99 240.5,159C 206.782,162.58 183.616,148.747 171,117.5C 168.877,108.292 168.044,98.959 168.5,89.5C 144.802,89.0851 121.135,89.5851 97.5,91C 82.5164,95.2295 72.6831,104.729 68,119.5C 66.3441,225.132 66.0108,330.798 67,436.5C 70.4067,453.809 80.5734,464.975 97.5,470C 100.167,470.333 102.833,470.667 105.5,471C 173.5,471.333 241.5,471.667 309.5,472C 323.365,478.927 326.865,489.427 320,503.5C 317.025,507.048 313.525,509.714 309.5,511.5C 237.5,511.5 165.5,511.5 93.5,511.5C 57.7302,503.898 35.5636,482.232 27,446.5C 25.3459,337.863 25.0126,229.196 26,120.5C 32.5093,81.658 55.0093,58.158 93.5,50C 118.498,49.5 143.498,49.3334 168.5,49.5C 168.333,37.8286 168.5,26.1619 169,14.5C 171.29,7.38267 175.79,2.38267 182.5,-0.5 Z M 209.5,39.5 C 222.5,39.5 235.5,39.5 248.5,39.5C 248.667,60.8359 248.5,82.1693 248,103.5C 242.321,117.83 232.488,121.997 218.5,116C 214.072,112.908 211.239,108.741 210,103.5C 209.5,82.1693 209.333,60.8359 209.5,39.5 Z"/></g>
<g><path style="opacity:0.97" fill="#000000" d="M 435.5,511.5 C 428.5,511.5 421.5,511.5 414.5,511.5C 403.394,509.115 393.394,504.282 384.5,497C 345.972,458.806 307.805,420.306 270,381.5C 260.382,351.147 251.882,320.48 244.5,289.5C 245.617,276.882 252.45,270.216 265,269.5C 273.016,270.462 280.849,272.295 288.5,275C 311.391,281.721 334.058,289.054 356.5,297C 396.028,336.194 435.195,375.694 474,415.5C 491.56,444.839 488.727,472.005 465.5,497C 456.606,504.282 446.606,509.115 435.5,511.5 Z M 295.5,320.5 C 308.239,324.024 320.906,327.857 333.5,332C 356.972,356.472 380.805,380.639 405,404.5C 405.667,405.167 405.667,405.833 405,406.5C 396.333,415.167 387.667,423.833 379,432.5C 354.667,408.167 330.333,383.833 306,359.5C 302.027,346.605 298.527,333.605 295.5,320.5 Z M 434.5,434.5 C 447.401,445.236 447.735,456.402 435.5,468C 425.229,472.71 416.396,470.876 409,462.5C 408.333,461.833 408.333,461.167 409,460.5C 417.702,451.965 426.202,443.298 434.5,434.5 Z"/></g>
</svg>
