<?xml version="1.0" encoding="UTF-8"?>
<!DOCTYPE svg PUBLIC "-//W3C//DTD SVG 1.1//EN" "http://www.w3.org/Graphics/SVG/1.1/DTD/svg11.dtd">
<svg xmlns="http://www.w3.org/2000/svg" version="1.1" width="512px" height="512px" style="shape-rendering:geometricPrecision; text-rendering:geometricPrecision; image-rendering:optimizeQuality; fill-rule:evenodd; clip-rule:evenodd" xmlns:xlink="http://www.w3.org/1999/xlink">
<g><path style="opacity:0.977" fill="#000000" d="M 200.5,-0.5 C 229.167,-0.5 257.833,-0.5 286.5,-0.5C 306.732,0.714822 327.065,2.54816 347.5,5C 394.406,9.60105 428.572,32.7677 450,74.5C 454.206,83.7851 457.206,93.4518 459,103.5C 464.04,142.677 466.04,182.01 465,221.5C 458.449,238.136 446.616,243.636 429.5,238C 423.089,234.694 418.922,229.528 417,222.5C 415.838,184.426 413.504,146.426 410,108.5C 401.02,79.1879 381.52,61.3545 351.5,55C 329.93,51.9287 308.263,49.9287 286.5,49C 250.488,48.1707 214.488,48.504 178.5,50C 159.363,51.3114 140.363,53.6447 121.5,57C 94.4837,64.6833 77.6504,82.1833 71,109.5C 67.8423,132.392 65.8423,155.392 65,178.5C 62.5809,239.204 63.2476,299.87 67,360.5C 67.7457,373.959 69.4123,387.293 72,400.5C 82.2337,430.39 103.067,447.557 134.5,452C 162.057,455.512 189.723,457.512 217.5,458C 230.424,460.98 237.424,469.147 238.5,482.5C 237.479,494.682 231.146,502.516 219.5,506C 190.029,506.874 160.696,505.208 131.5,501C 84.3855,495.867 50.5522,472.034 30,429.5C 26.3235,420.803 23.6568,411.803 22,402.5C 16.4298,352.828 13.9298,302.995 14.5,253C 14.1114,205.38 16.278,157.88 21,110.5C 28.1599,64.0122 53.3265,31.5122 96.5,13C 106.28,9.72163 116.28,7.3883 126.5,6C 151.247,2.94677 175.914,0.780099 200.5,-0.5 Z"/></g>
<g><path style="opacity:0.953" fill="#000000" d="M 113.5,106.5 C 135.586,106.686 145.086,117.686 142,139.5C 136.823,152.342 127.323,157.842 113.5,156C 95.4423,149.869 89.609,137.702 96,119.5C 100.049,112.599 105.882,108.266 113.5,106.5 Z"/></g>
<g><path style="opacity:0.968" fill="#000000" d="M 191.5,106.5 C 250.168,106.333 308.834,106.5 367.5,107C 384.594,112.688 390.428,124.188 385,141.5C 380.84,149.334 374.34,153.834 365.5,155C 308.167,155.667 250.833,155.667 193.5,155C 176.124,150.269 169.624,139.102 174,121.5C 177.782,114.037 183.616,109.037 191.5,106.5 Z"/></g>
<g><path style="opacity:0.952" fill="#000000" d="M 115.5,207.5 C 137.877,209.706 146.377,221.706 141,243.5C 132.029,257.709 119.862,261.209 104.5,254C 92.4182,243.764 90.2515,231.597 98,217.5C 102.669,211.921 108.502,208.588 115.5,207.5 Z"/></g>
<g><path style="opacity:0.964" fill="#000000" d="M 191.5,208.5 C 214.836,208.333 238.169,208.5 261.5,209C 277.244,214.428 283.077,225.261 279,241.5C 274.933,250.952 267.766,256.118 257.5,257C 236.5,257.667 215.5,257.667 194.5,257C 178.176,253.856 171.01,244.023 173,227.5C 175.348,217.32 181.515,210.987 191.5,208.5 Z"/></g>
<g><path style="opacity:0.976" fill="#000000" d="M 384.5,511.5 C 371.167,511.5 357.833,511.5 344.5,511.5C 281.625,497.788 244.791,459.122 234,395.5C 230.42,331.797 257.254,286.297 314.5,259C 365.535,240.61 411.869,248.61 453.5,283C 490.794,319.899 503.628,364.066 492,415.5C 474.823,468.516 438.99,500.516 384.5,511.5 Z M 354.5,298.5 C 398.791,296.544 428.624,316.211 444,357.5C 453.236,396.806 441.403,427.973 408.5,451C 377.204,468.433 346.537,467.433 316.5,448C 286.765,424.128 276.598,393.628 286,356.5C 297.751,323.905 320.584,304.571 354.5,298.5 Z"/></g>
<g><path style="opacity:0.966" fill="#000000" d="M 396.5,332.5 C 413.047,330.007 423.547,336.674 428,352.5C 428.951,360.366 426.951,367.366 422,373.5C 401.805,394.029 381.305,414.195 360.5,434C 350.988,438.849 341.655,438.516 332.5,433C 320.97,421.804 309.803,410.304 299,398.5C 293.068,383.97 296.568,372.47 309.5,364C 317.652,360.518 325.652,360.852 333.5,365C 338.316,368.981 342.982,373.148 347.5,377.5C 361.319,364.181 374.986,350.681 388.5,337C 391.099,335.205 393.766,333.705 396.5,332.5 Z"/></g>
</svg>
