<?xml version="1.0" encoding="UTF-8"?>
<!DOCTYPE svg PUBLIC "-//W3C//DTD SVG 1.1//EN" "http://www.w3.org/Graphics/SVG/1.1/DTD/svg11.dtd">
<svg xmlns="http://www.w3.org/2000/svg" version="1.1" width="512px" height="512px" style="shape-rendering:geometricPrecision; text-rendering:geometricPrecision; image-rendering:optimizeQuality; fill-rule:evenodd; clip-rule:evenodd" xmlns:xlink="http://www.w3.org/1999/xlink">
<g><path style="opacity:0.971" fill="#000000" d="M 232.5,-0.5 C 247.833,-0.5 263.167,-0.5 278.5,-0.5C 379.371,12.3469 450.871,65.0136 493,157.5C 502.497,181.819 508.663,206.819 511.5,232.5C 511.5,247.5 511.5,262.5 511.5,277.5C 506.955,322.967 491.621,364.467 465.5,402C 456.167,408 446.833,408 437.5,402C 431.798,395.555 429.964,388.055 432,379.5C 474.908,313.993 482.241,244.66 454,171.5C 421.657,101.166 367.491,58.3327 291.5,43C 211.036,32.2617 143.869,57.095 90,117.5C 37.6135,185.168 26.6135,259.168 57,339.5C 96.7714,422.708 162.938,466.708 255.5,471.5C 297.107,470.351 335.774,459.185 371.5,438C 391.25,436.083 399.75,444.916 397,464.5C 395.698,468.274 393.531,471.441 390.5,474C 355.578,495.03 317.912,507.53 277.5,511.5C 262.5,511.5 247.5,511.5 232.5,511.5C 143.567,501.026 76.4004,457.36 31,380.5C 13.7076,348.465 3.20759,314.465 -0.5,278.5C -0.5,263.167 -0.5,247.833 -0.5,232.5C 11.9006,134.848 62.234,64.3481 150.5,21C 176.892,9.73692 204.225,2.57026 232.5,-0.5 Z"/></g>
<g><path style="opacity:0.961" fill="#000000" d="M 160.5,146.5 C 168.16,145.368 175.16,146.868 181.5,151C 206,175.5 230.5,200 255,224.5C 279.5,200 304,175.5 328.5,151C 334.845,146.704 341.845,145.37 349.5,147C 360.752,152.343 364.919,161.176 362,173.5C 360.92,175.996 359.586,178.33 358,180.5C 333.5,205 309,229.5 284.5,254C 309,278.5 333.5,303 358,327.5C 362.296,333.845 363.63,340.845 362,348.5C 356.657,359.752 347.824,363.919 335.5,361C 333.004,359.92 330.67,358.586 328.5,357C 304,332.5 279.5,308 255,283.5C 230.5,308 206,332.5 181.5,357C 175.155,361.296 168.155,362.63 160.5,361C 149.248,355.657 145.081,346.824 148,334.5C 149.08,332.004 150.414,329.67 152,327.5C 176.5,303 201,278.5 225.5,254C 199.972,228.805 174.805,203.305 150,177.5C 143.901,163.733 147.401,153.4 160.5,146.5 Z"/></g>
</svg>
