<?xml version="1.0" encoding="UTF-8"?>
<!DOCTYPE svg PUBLIC "-//W3C//DTD SVG 1.1//EN" "http://www.w3.org/Graphics/SVG/1.1/DTD/svg11.dtd">
<svg xmlns="http://www.w3.org/2000/svg" version="1.1" width="512px" height="512px" style="shape-rendering:geometricPrecision; text-rendering:geometricPrecision; image-rendering:optimizeQuality; fill-rule:evenodd; clip-rule:evenodd" xmlns:xlink="http://www.w3.org/1999/xlink">
<g><path style="opacity:0.976" fill="#000000" d="M -0.5,260.5 C -0.5,257.167 -0.5,253.833 -0.5,250.5C 31.7414,167.431 90.4081,112.264 175.5,85C 234.52,68.0778 292.853,70.0778 350.5,91C 359.651,94.4921 368.484,98.6588 377,103.5C 389.167,91.3333 401.333,79.1667 413.5,67C 427.046,60.0734 437.879,62.9068 446,75.5C 448.488,83.1569 447.822,90.4903 444,97.5C 327.806,214.027 211.306,330.194 94.5,446C 72.5358,450.701 62.3691,441.868 64,419.5C 65,417.5 66,415.5 67,413.5C 76.1667,404.333 85.3333,395.167 94.5,386C 50.3929,353.418 18.7263,311.584 -0.5,260.5 Z M 237.5,117.5 C 274.139,115.385 309.472,121.051 343.5,134.5C 333.514,144.986 323.348,155.319 313,165.5C 281.298,146.206 248.131,143.373 213.5,157C 163.378,182.742 142.545,223.575 151,279.5C 153.897,291.531 158.73,302.698 165.5,313C 152.319,326.347 138.986,339.514 125.5,352.5C 88.6715,328.487 62.0048,296.154 45.5,255.5C 70.1495,197.351 111.816,156.518 170.5,133C 192.281,124.815 214.614,119.648 237.5,117.5 Z M 254.5,191.5 C 263.544,191.842 272.211,193.842 280.5,197.5C 281.521,198.002 281.688,198.668 281,199.5C 254,226.5 227,253.5 200,280.5C 194.179,273.201 191.679,264.868 192.5,255.5C 193.233,231.193 203.899,212.693 224.5,200C 234.025,194.985 244.025,192.152 254.5,191.5 Z"/></g>
<g><path style="opacity:0.967" fill="#000000" d="M 511.5,251.5 C 511.5,254.833 511.5,258.167 511.5,261.5C 478.829,344 420.162,398.833 335.5,426C 282.938,440.944 230.271,441.278 177.5,427C 177.043,426.586 176.709,426.086 176.5,425.5C 187.989,414.179 199.655,403.012 211.5,392C 293.391,405.145 363.558,382.645 422,324.5C 440.307,304.682 454.807,282.349 465.5,257.5C 453.357,230.695 437.357,206.529 417.5,185C 426.791,174.708 436.457,164.708 446.5,155C 447.167,154.333 447.833,154.333 448.5,155C 476.578,182.572 497.578,214.738 511.5,251.5 Z"/></g>
<g><path style="opacity:0.954" fill="#000000" d="M 358.5,240.5 C 359.496,240.414 360.329,240.748 361,241.5C 365.592,284.479 350.425,318.646 315.5,344C 292.6,359.812 267.6,364.979 240.5,359.5C 279.854,319.812 319.188,280.146 358.5,240.5 Z"/></g>
</svg>
