<?xml version="1.0" encoding="utf-8"?>
<!-- Generator: Adobe Illustrator 27.1.0, SVG Export Plug-In . SVG Version: 6.00 Build 0)  -->
<svg version="1.1" id="Layer_1" xmlns="http://www.w3.org/2000/svg" xmlns:xlink="http://www.w3.org/1999/xlink" x="0px" y="0px"
	 viewBox="0 0 512 512" style="enable-background:new 0 0 512 512;" xml:space="preserve">
<style type="text/css">
	.st0{opacity:0.975;fill-rule:evenodd;clip-rule:evenodd;enable-background:new    ;}
</style>
<g>
	<path class="st0" d="M244.3,0.3C284-2.3,314.6,13,336.2,45.9c14.5,27.1,16.3,54.9,5.4,83.7c-3.3,7.6-7.5,14.7-12.5,21.2
		c34.6,18.1,56.3,46.2,65.2,84.2c49.8,16.3,73.2,50.7,70.1,103.2c-2.7,16.5-9,31.3-19,44.6c40.8,22,62.9,56.2,66.3,102.7
		c-1.9,22.9-13.8,30.8-35.9,23.9c-6.4-3.9-10.2-9.5-11.4-16.8c0-30.3-13.2-52.6-39.7-66.8c-5.6-2.5-11.4-4.3-17.4-5.4
		c-19.9-1.6-39.8-2-59.8-1.1c-30.2,1.9-51.4,16.6-63.6,44c-3.1,12.6-5.7,25.3-7.6,38c-7.7,9.9-17.7,12.9-29.9,9.2
		c-6.7-2.4-11.2-6.9-13.6-13.6c0.5-38-17.1-63.2-52.7-75.5c-25.3-3.2-50.7-3.5-76.1-1.1c-28,6.3-46.3,23.1-54.9,50.5
		c-1,9.5-2.4,18.9-4.3,28.3c-6.8,10.6-16.4,14.4-28.8,11.4c-8.2-2.4-13.4-7.6-15.8-15.8c-1-50.9,20.9-88.2,65.7-111.9
		c-21.7-30-25.5-62.2-11.4-96.7c13.5-25.9,34.3-43,62.5-51.1c8.6-38.4,30.3-66.5,65.2-84.2c-24.4-34.4-26.4-70.1-6-107
		C192.7,19.3,215.3,4.8,244.3,0.3z M246.5,48.1c35.1-1.6,53.4,15,54.9,50c-5.9,28.7-23.4,42.3-52.7,40.8
		c-26.4-6.5-39.3-23.3-38.6-50.5C213.7,67.1,225.9,53.7,246.5,48.1z M222.6,187.2c22.1-0.2,44.2,0,66.3,0.5
		c21.5,3.8,38,14.8,49.4,33.1c2.6,4.6,4.6,9.5,6,14.7c-47.5,19.4-69,54.7-64.7,106c2.7,15.7,9,29.6,19,41.8
		c-16.9,8.2-31.2,19.6-42.9,34.2c-11.7-14.6-26.1-26.1-42.9-34.2c21.7-30.2,25.5-62.6,11.4-97.3c-12.7-24.3-32.1-40.8-58.1-49.4
		C175.5,209.3,194.4,192.8,222.6,187.2z M135.7,279.6c29.7,1.3,46.4,16.7,50,46.2c-3.1,27.7-18.5,43.1-46.2,46.2
		c-27.5-3-42.9-18.2-46.2-45.6C95.7,299.9,109.9,284.3,135.7,279.6z M367.1,279.6c30.5,0.6,47.2,16,50,46.2
		c-2.2,27.9-17.2,43.3-45.1,46.2c-20.7-1.3-35.2-11.4-43.5-30.4C321.7,308.4,334.5,287.7,367.1,279.6z"/>
</g>
</svg>
