<?xml version="1.0" encoding="UTF-8"?>
<!DOCTYPE svg PUBLIC "-//W3C//DTD SVG 1.1//EN" "http://www.w3.org/Graphics/SVG/1.1/DTD/svg11.dtd">
<svg xmlns="http://www.w3.org/2000/svg" version="1.1" width="512px" height="512px" style="shape-rendering:geometricPrecision; text-rendering:geometricPrecision; image-rendering:optimizeQuality; fill-rule:evenodd; clip-rule:evenodd" xmlns:xlink="http://www.w3.org/1999/xlink">
<g><path style="opacity:0.972" fill="#000000" d="M 245.5,-0.5 C 252.167,-0.5 258.833,-0.5 265.5,-0.5C 272.593,1.59593 279.26,4.76259 285.5,9C 357.971,78.4698 430.137,148.303 502,218.5C 506.237,224.74 509.404,231.407 511.5,238.5C 511.5,245.167 511.5,251.833 511.5,258.5C 503.251,284.716 485.251,297.382 457.5,296.5C 457.667,349.501 457.5,402.501 457,455.5C 450.32,486.013 431.82,504.68 401.5,511.5C 304.167,511.5 206.833,511.5 109.5,511.5C 79.1805,504.68 60.6805,486.013 54,455.5C 53.5,402.501 53.3333,349.501 53.5,296.5C 25.7487,297.382 7.7487,284.716 -0.5,258.5C -0.5,251.833 -0.5,245.167 -0.5,238.5C 1.59593,231.407 4.76259,224.74 9,218.5C 80.8627,148.303 153.029,78.4698 225.5,9C 231.74,4.76259 238.407,1.59593 245.5,-0.5 Z M 251.5,35.5 C 255.792,35.0349 259.792,35.8682 263.5,38C 334.053,106.555 404.553,175.055 475,243.5C 476.879,250.101 475.046,255.268 469.5,259C 458.238,260.267 446.905,260.934 435.5,261C 429.499,262.336 425.332,265.836 423,271.5C 421.686,331.463 421.019,391.463 421,451.5C 417.167,463.333 409.333,471.167 397.5,475C 379.542,476.416 361.542,476.916 343.5,476.5C 343.667,436.499 343.5,396.499 343,356.5C 336.515,324.682 317.348,305.515 285.5,299C 265.5,298.333 245.5,298.333 225.5,299C 193.652,305.515 174.485,324.682 168,356.5C 167.5,396.499 167.333,436.499 167.5,476.5C 149.458,476.916 131.458,476.416 113.5,475C 101.667,471.167 93.8333,463.333 90,451.5C 89.9809,391.463 89.3142,331.463 88,271.5C 85.6676,265.836 81.5009,262.336 75.5,261C 64.0954,260.934 52.762,260.267 41.5,259C 35.9539,255.268 34.1206,250.101 36,243.5C 98.1423,182.359 160.642,121.525 223.5,61C 232.73,52.2651 242.063,43.7651 251.5,35.5 Z M 229.5,334.5 C 246.837,334.333 264.17,334.5 281.5,335C 295.333,338.167 303.833,346.667 307,360.5C 307.5,399.165 307.667,437.832 307.5,476.5C 272.833,476.5 238.167,476.5 203.5,476.5C 203.333,437.832 203.5,399.165 204,360.5C 207.348,346.653 215.848,337.986 229.5,334.5 Z"/></g>
</svg>
