<?xml version="1.0" encoding="UTF-8"?>
<!DOCTYPE svg PUBLIC "-//W3C//DTD SVG 1.1//EN" "http://www.w3.org/Graphics/SVG/1.1/DTD/svg11.dtd">
<svg xmlns="http://www.w3.org/2000/svg" version="1.1" width="512px" height="512px" style="shape-rendering:geometricPrecision; text-rendering:geometricPrecision; image-rendering:optimizeQuality; fill-rule:evenodd; clip-rule:evenodd" xmlns:xlink="http://www.w3.org/1999/xlink">
<g><path style="opacity:0.972" fill="#000000" d="M 243.5,41.5 C 329.668,40.4876 395.502,76.1543 441,148.5C 479.837,222.068 478.837,295.068 438,367.5C 398.036,429.087 341.203,462.921 267.5,469C 181.303,470.496 115.47,434.996 70,362.5C 31.1631,288.932 32.1631,215.932 73,143.5C 113.168,81.9859 170.002,47.9859 243.5,41.5 Z M 240.5,85.5 C 304.233,82.6243 355.4,106.291 394,156.5C 427.62,206.736 434.286,260.403 414,317.5C 386.555,380.329 338.721,416.162 270.5,425C 206.742,428.364 155.576,404.864 117,354.5C 83.3802,304.264 76.7136,250.597 97,193.5C 124.67,130.745 172.504,94.7445 240.5,85.5 Z"/></g>
<g><path style="opacity:0.965" fill="#000000" d="M 236.5,127.5 C 260.609,125.032 274.275,135.698 277.5,159.5C 275.656,179.678 264.656,190.345 244.5,191.5C 229.696,191.34 219.529,184.34 214,170.5C 209.419,149.657 216.919,135.324 236.5,127.5 Z"/></g>
<g><path style="opacity:0.97" fill="#000000" d="M 228.5,212.5 C 239.505,212.333 250.505,212.5 261.5,213C 268.573,215.072 273.406,219.572 276,226.5C 277.475,264.452 277.975,302.452 277.5,340.5C 286.173,340.334 294.84,340.5 303.5,341C 318.071,346.328 322.904,356.494 318,371.5C 315.341,377.492 310.841,381.325 304.5,383C 292.167,383.667 279.833,383.667 267.5,383C 248.354,378.186 237.187,366.02 234,346.5C 233.5,316.168 233.333,285.835 233.5,255.5C 223.016,254.85 216.183,249.517 213,239.5C 210.964,226.228 216.13,217.228 228.5,212.5 Z"/></g>
</svg>
