<?xml version="1.0" encoding="UTF-8"?>
<!DOCTYPE svg PUBLIC "-//W3C//DTD SVG 1.1//EN" "http://www.w3.org/Graphics/SVG/1.1/DTD/svg11.dtd">
<svg xmlns="http://www.w3.org/2000/svg" version="1.1" width="512px" height="512px" style="shape-rendering:geometricPrecision; text-rendering:geometricPrecision; image-rendering:optimizeQuality; fill-rule:evenodd; clip-rule:evenodd" xmlns:xlink="http://www.w3.org/1999/xlink">
<g><path style="opacity:0.978" fill="#000000" d="M 381.5,-0.5 C 419.167,-0.5 456.833,-0.5 494.5,-0.5C 497.9,1.03697 501.233,2.8703 504.5,5C 507.5,8.51357 509.833,12.3469 511.5,16.5C 511.5,54.1667 511.5,91.8333 511.5,129.5C 510.379,131.741 509.213,134.075 508,136.5C 448,196.5 388,256.5 328,316.5C 336.254,378.757 317.421,430.924 271.5,473C 245.483,494.283 215.817,507.116 182.5,511.5C 170.5,511.5 158.5,511.5 146.5,511.5C 76.2134,500.717 29.38,461.717 6,394.5C 3.36117,384.461 1.1945,374.461 -0.5,364.5C -0.5,352.833 -0.5,341.167 -0.5,329.5C 8.98122,265.193 43.3145,219.693 102.5,193C 132.007,182.02 162.341,178.686 193.5,183C 205.862,170.304 218.529,157.97 231.5,146C 234.618,144.107 237.951,142.774 241.5,142C 253.162,141.5 264.829,141.333 276.5,141.5C 267.78,96.2199 286.113,77.8866 331.5,86.5C 331.333,74.4954 331.5,62.4954 332,50.5C 332.438,47.624 333.438,44.9573 335,42.5C 346.47,30.029 358.304,17.8624 370.5,6C 373.933,3.28937 377.6,1.1227 381.5,-0.5 Z M 397.5,46.5 C 419.833,46.5 442.167,46.5 464.5,46.5C 464.667,68.8358 464.5,91.1692 464,113.5C 403.333,174.167 342.667,234.833 282,295.5C 279.086,299.907 277.586,304.74 277.5,310C 289.507,357.35 278.507,398.35 244.5,433C 207.708,464.498 166.375,472.165 120.5,456C 73.8301,434.525 49.1634,398.025 46.5,346.5C 48.8048,295.735 72.8048,259.568 118.5,238C 143.648,228.168 169.315,226.501 195.5,233C 203.302,234.62 210.302,232.953 216.5,228C 229.167,215.333 241.833,202.667 254.5,190C 270.5,189.667 286.5,189.333 302.5,189C 312.896,187.89 319.729,182.39 323,172.5C 324.374,159.88 324.874,147.213 324.5,134.5C 335.838,134.667 347.172,134.5 358.5,134C 368.815,132.349 375.315,126.516 378,116.5C 378.333,99.5 378.667,82.5 379,65.5C 385.369,59.2981 391.536,52.9648 397.5,46.5 Z"/></g>
<g><path style="opacity:0.95" fill="#000000" d="M 134.5,346.5 C 152.349,344.53 162.349,352.364 164.5,370C 163.333,384.5 155.5,392.333 141,393.5C 126.5,392.333 118.667,384.5 117.5,370C 117.988,358.355 123.654,350.522 134.5,346.5 Z"/></g>
</svg>
