<?xml version="1.0" encoding="utf-8"?>
<!-- Generator: Adobe Illustrator 27.1.0, SVG Export Plug-In . SVG Version: 6.00 Build 0)  -->
<svg version="1.1" id="Layer_1" xmlns="http://www.w3.org/2000/svg" xmlns:xlink="http://www.w3.org/1999/xlink" x="0px" y="0px"
	 viewBox="0 0 512 512" style="enable-background:new 0 0 512 512;" xml:space="preserve">
<g transform="translate(0.000000,500.000000) scale(0.100000,-0.100000)">
	<path d="M1700.5,4025.8c-443.2-125.7-796.8-234.2-785.8-240.5c11-6.3,386.6-114.7,832.9-242l814.1-232.6l812.5,232.6
		c447.9,127.3,823.5,235.7,834.5,242c23.6,14.1-1588.9,473-1654.9,471.5C2528.7,4256.8,2143.7,4153.1,1700.5,4025.8z M2679.6,3840.4
		l58.1-39.3l512.3,1.6c281.3,0,509.2-1.6,504.5-6.3c-3.1-3.1-229.5-15.7-501.3-26.7l-495-18.9l-69.1-44
		c-88-58.1-161.9-59.7-213.7-6.3c-22,20.4-39.3,53.4-39.3,70.7c0,18.9,17.3,50.3,39.3,70.7
		C2525.6,3893.8,2602.6,3893.8,2679.6,3840.4z"/>
	<path d="M746.5,3958.2c-102.2-95.9-180.7-218.4-180.7-286c0-23.6,4.7-25.1,36.1-9.4c75.4,40.9,196.4,185.4,229.5,275
		c18.9,48.7,31.4,95.9,28.3,105.3C858.1,4051,806.3,4013.2,746.5,3958.2z"/>
	<path d="M4265.3,4014.8c22-95.9,91.2-212.2,163.4-276.6c99-86.4,128.9-102.2,128.9-66c0,84.9-130.4,259.3-273.5,367.7
		C4255.9,4060.4,4254.3,4058.8,4265.3,4014.8z"/>
	<path d="M488.8,3964.5c-77-165-103.7-358.3-59.7-419.6c18.9-26.7,23.6-22,55,51.9c47.1,106.9,69.1,231,56.6,308
		C524.9,4000.7,512.4,4016.4,488.8,3964.5z"/>
	<path d="M4589,3944.1c-14.1-51.9-15.7-95.9-4.7-165c17.3-97.4,78.6-259.3,99-259.3c15.7,0,31.4,81.7,31.4,165
		c0,66-39.3,201.2-83.3,284.5l-23.6,45.6L4589,3944.1z"/>
	<path d="M284.5,3687.9c-34.6-139.9-37.7-238.9-11-330c14.1-50.3,33-89.6,40.9-89.6c18.9,0,45.6,94.3,56.6,205.9
		c9.4,86.4-23.6,253-55,271.9C308.1,3750.8,293.9,3724.1,284.5,3687.9z"/>
	<path d="M4769.8,3653.4c-18.9-69.1-25.1-128.9-18.9-183.9c12.6-106.9,39.3-201.2,58.1-201.2c29.9,0,67.6,174.4,56.6,264
		c-14.1,113.2-40.9,223.2-56.6,223.2C4802.8,3755.5,4783.9,3709.9,4769.8,3653.4z"/>
	<path d="M660.1,3651.8c-47.1-31.4-106.9-75.4-130.4-97.4c-53.4-50.3-110-152.4-102.2-185.4c6.3-34.6,180.7,81.7,245.2,163.4
		c53.4,67.6,106.9,176,84.9,176C751.3,3708.4,707.2,3683.2,660.1,3651.8z"/>
	<path d="M4376.9,3650.2c14.1-31.4,42.4-81.7,64.4-111.6c64.4-81.7,227.9-194.9,251.5-171.3c15.7,15.7-26.7,106.9-80.2,166.6
		c-45.6,51.9-218.4,174.4-246.7,174.4C4359.6,3708.4,4364.3,3681.6,4376.9,3650.2z"/>
	<path d="M3963.6,3612.5c-1.6-56.6-11-95.9-26.7-108.4c-26.7-22-31.4-72.3-7.9-86.4c12.6-7.9,12.6-17.3,0-31.4
		c-15.7-18.9-94.3-432.2-94.3-496.6c0-55,182.3-84.9,243.6-39.3c29.9,22,29.9,26.7-6.3,254.6c-20.4,128.9-47.1,249.9-58.1,268.7
		c-14.1,22-15.7,37.7-6.3,44c23.6,14.1,18.9,81.7-6.3,91.2c-15.7,6.3-25.1,39.3-29.9,100.6l-4.7,91.2L3963.6,3612.5z"/>
	<path d="M84.9,3422.3c12.6-119.4,64.4-254.6,122.6-320.6c56.6-64.4,73.9-58.1,64.4,20.4c-18.9,154-72.3,275-154,350.5l-44,39.3
		L84.9,3422.3z"/>
	<path d="M4986.7,3452.2c-70.7-80.2-97.4-138.3-124.2-259.3c-29.9-143-29.9-149.3,11-128.9c77,42.4,182.3,289.2,168.2,400.8
		l-4.7,45.6L4986.7,3452.2z"/>
	<path d="M1823.1,3037.3V2635l39.3-51.9c45.6-59.7,191.7-135.2,337.9-174.4c144.6-39.3,578.3-39.3,722.9,0
		c143,39.3,281.3,106.9,342.6,166.6l50.3,51.9v407c0,223.2-4.7,407-11,407s-176-50.3-377.2-111.6L2561.7,3218L2205,3329.6
		c-198,61.3-363,111.6-369.3,111.6C1827.8,3441.2,1823.1,3260.5,1823.1,3037.3z"/>
	<path d="M454.2,3282.5c-73.9-97.4-127.3-220-136.7-315.9c-9.4-119.4,11-117.9,89.6,1.6c70.7,110,100.6,204.3,92.7,300.2l-4.7,69.1
		L454.2,3282.5z"/>
	<path d="M4620.5,3257.3c0-97.4,37.7-207.4,108.4-308c67.6-100.6,86.4-95.9,77,17.3c-9.4,95.9-72.3,240.5-144.6,325.3L4622,3339
		L4620.5,3257.3z"/>
	<path d="M62.9,3145.7c0-28.3,51.9-187,78.6-238.9c29.9-56.6,136.7-172.9,160.3-172.9c39.3,0-23.6,194.9-95.9,295.5
		C158.8,3092.3,62.9,3172.5,62.9,3145.7z"/>
	<path d="M4985.1,3103.3c-37.7-33-84.9-97.4-113.2-154c-50.3-102.2-77-215.3-51.9-215.3c23.6,0,114.7,95.9,154,163.4
		c37.7,64.4,94.3,242,83.3,254.6C5052.7,3155.2,5021.2,3133.2,4985.1,3103.3z"/>
	<path d="M411.8,2872.3c-23.6-138.3-9.4-290.7,37.7-388.2c37.7-75.4,44-81.7,59.7-55c9.4,17.3,17.3,97.4,17.3,179.2
		c0,147.7-22,238.9-78.6,319C429.1,2954,425.9,2949.3,411.8,2872.3z"/>
	<path d="M4642.5,2867.6c-40.9-84.9-45.6-110-45.6-251.5c0-86.4,7.9-169.7,17.3-187c15.7-26.7,22-18.9,61.3,61.3
		s45.6,106.9,44,234.2c-1.6,78.6-7.9,163.4-15.7,190.2l-14.1,47.1L4642.5,2867.6z"/>
	<path d="M0,2814.1c0-20.4,86.4-130.4,150.9-193.3c59.7-56.6,154-106.9,202.7-106.9c22,0,22,4.7,1.6,44
		c-33,58.1-100.6,132-168.2,180.7C125.8,2784.3,0,2834.6,0,2814.1z"/>
	<path d="M5057.4,2803.1c-92.7-31.4-193.3-108.4-254.6-193.3c-66-89.6-67.6-95.9-25.1-95.9c78.6,0,268.7,154,328.5,265.6
		C5131.2,2826.7,5126.5,2828.3,5057.4,2803.1z"/>
	<path d="M584.7,2455.8c48.7-176,138.3-325.3,234.2-389.8l66-42.4l-11,59.7c-22,117.9-103.7,268.7-191.7,352
		C581.5,2531.3,562.7,2534.4,584.7,2455.8z"/>
	<path d="M4441.3,2435.4c-114.7-108.4-243.6-392.9-177.6-392.9c40.9,0,160.3,130.4,202.7,221.6c53.4,113.2,94.3,249.9,73.9,249.9
		C4530.9,2514,4486.9,2477.8,4441.3,2435.4z"/>
	<path d="M171.3,2471.5c7.9-15.7,56.6-69.1,110-119.4c106.9-102.2,242-172.9,317.5-165l50.3,4.7l-73.9,80.2
		c-108.4,121-212.2,180.7-375.6,216.9C160.3,2498.2,157.2,2495.1,171.3,2471.5z"/>
	<path d="M4832.6,2465.2c-108.4-37.7-218.4-114.7-300.2-207.4l-55-66l47.1-4.7c100.6-11,312.7,127.3,413.3,267.2
		C4975.6,2507.7,4961.5,2509.2,4832.6,2465.2z"/>
	<path d="M1621.9,2163.5c-72.3-45.6-127.3-91.2-125.7-102.2c3.1-17.3,194.9-23.6,1034.1-29.9c751.2-6.3,1032.5-12.6,1040.4-25.1
		c20.4-33,12.6-83.3-15.7-110c-26.7-23.6-122.6-26.7-1045.1-26.7H1493v-55v-55h1068.7c903.7,0,1068.7,3.1,1068.7,22
		c0,12.6-11,26.7-25.1,31.4c-23.6,9.4-23.6,14.1,6.3,45.6c42.4,45.6,56.6,103.7,36.1,155.6c-7.9,22-66,84.9-127.3,136.7l-111.6,95.9
		h-828.2l-828.2-1.6L1621.9,2163.5z"/>
	<path d="M911.6,2193.4c0-25.1,75.4-130.4,130.4-179.2c22-20.4,95.9-67.6,165-102.2l125.7-66h-176c-168.2,0-177.6-1.6-273.5-53.4
		c-130.4-70.7-111.6-88,95.9-88c174.4,1.6,254.6,20.4,325.3,81.7c72.3,59.7,61.3,117.9-45.6,229.5
		C1166.1,2114.8,911.6,2243.7,911.6,2193.4z"/>
	<path d="M4130.1,2183.9c-190.2-72.3-358.3-224.7-358.3-326.9c0-37.7,55-89.6,133.6-122.6c45.6-20.4,108.4-28.3,231-28.3
		c215.3-1.6,235.7,14.1,103.7,86.4c-95.9,51.9-105.3,53.4-273.5,53.4h-176l125.7,66c69.1,36.1,150.9,89.6,180.7,117.9
		c61.3,59.7,119.4,147.7,111.6,168.2C4205.6,2205.9,4171,2199.6,4130.1,2183.9z"/>
	<path d="M353.6,2176.1c-7.9-3.1-44-9.4-77-15.7l-61.3-11l45.6-29.9c86.4-58.1,295.5-113.2,399.2-105.3
		c133.6,9.4,147.7,31.4,53.4,80.2C606.7,2147.8,405.5,2194.9,353.6,2176.1z"/>
	<path d="M4585.9,2158.8c-50.3-11-127.3-39.3-171.3-62.9c-99-48.7-86.4-72.3,47.1-81.7c106.9-7.9,281.3,37.7,385,99l61.3,36.1
		l-53.4,9.4C4736.8,2179.2,4672.3,2179.2,4585.9,2158.8z"/>
	<path d="M723,1963.9c-80.2-14.1-204.3-61.3-204.3-77c0-20.4,157.2-48.7,271.9-48.7c128.9,0,212.2,18.9,264,61.3l36.1,28.3
		l-78.6,17.3C895.8,1970.2,801.5,1976.5,723,1963.9z"/>
	<path d="M4243.3,1968.6c-22-3.1-78.6-12.6-125.7-22l-84.9-17.3l36.1-29.9c50.3-40.9,133.6-61.3,254.6-61.3
		c113.2,0,281.3,28.3,281.3,48.7C4604.8,1923.1,4351.7,1981.2,4243.3,1968.6z"/>
	<path d="M1493,1665.3c0-31.4,11-31.4,1068.7-31.4s1068.7,0,1068.7,31.4c0,31.4-11,31.4-1068.7,31.4S1493,1696.7,1493,1665.3z"/>
	<path d="M1911.1,1349.4c-135.2-31.4-213.7-136.7-213.7-281.3c0-152.4,80.2-249.9,231-284.5c58.1-14.1,84.9-28.3,97.4-55
		c22-50.3,75.4-80.2,163.4-92.7l73.9-11v64.4c0,61.3-3.1,64.4-45.6,64.4c-66,0-73.9,40.9-17.3,89.6c26.7,22,56.6,55,66,72.3
		c53.4,100.6,40.9,257.7-28.3,339.5C2168.8,1338.4,2028.9,1377.7,1911.1,1349.4z M2063.5,1192.3c69.1-31.4,92.7-121,50.3-201.2
		c-25.1-51.9-51.9-64.4-125.7-64.4c-39.3,0-62.9,12.6-92.7,48.7c-55,64.4-53.4,130.4,4.7,188.6
		C1948.8,1212.7,2000.7,1220.6,2063.5,1192.3z"/>
	<path d="M3028.5,1344.7c-89.6-25.1-146.2-73.9-185.4-158.7c-25.1-53.4-29.9-56.6-29.9-23.6c0,59.7-58.1,141.4-117.9,166.6
		c-34.6,14.1-108.4,22-204.3,22h-149.3v-282.9V785.2h86.4h86.4v70.7v70.7h62.9c83.3,0,158.7,33,201.2,84.9l33,42.4l17.3-62.9
		c31.4-116.3,117.9-191.7,245.2-212.2c47.1-7.9,69.1-22,81.7-48.7c23.6-51.9,78.6-84.9,165-95.9l73.9-11v66
		c0,61.3-1.6,64.4-47.1,64.4c-67.6,0-80.2,42.4-25.1,83.3c99,70.7,132,238.9,73.9,367.7C3341.2,1322.7,3177.8,1385.6,3028.5,1344.7z
		 M3223.3,1164c31.4-31.4,45.6-61.3,45.6-95.9c0-70.7-73.9-141.4-149.3-141.4c-80.2,0-133.6,56.6-133.6,141.4
		C2986,1201.7,3127.5,1258.3,3223.3,1164z"/>
</g>
</svg>
