<?xml version="1.0" encoding="utf-8"?>
<!-- Generator: Adobe Illustrator 27.1.0, SVG Export Plug-In . SVG Version: 6.00 Build 0)  -->
<svg version="1.1" id="Layer_1" xmlns="http://www.w3.org/2000/svg" xmlns:xlink="http://www.w3.org/1999/xlink" x="0px" y="0px"
	 viewBox="0 0 512 512" style="enable-background:new 0 0 512 512;" xml:space="preserve">
<style type="text/css">
	.st0{opacity:0.997;fill-rule:evenodd;clip-rule:evenodd;enable-background:new    ;}
	.st1{opacity:0.998;fill-rule:evenodd;clip-rule:evenodd;enable-background:new    ;}
	.st2{opacity:0.996;fill-rule:evenodd;clip-rule:evenodd;enable-background:new    ;}
	.st3{opacity:0.995;fill-rule:evenodd;clip-rule:evenodd;enable-background:new    ;}
	.st4{opacity:0.994;fill-rule:evenodd;clip-rule:evenodd;enable-background:new    ;}
	.st5{opacity:0.993;fill-rule:evenodd;clip-rule:evenodd;enable-background:new    ;}
	.st6{opacity:0.99;fill-rule:evenodd;clip-rule:evenodd;enable-background:new    ;}
	.st7{opacity:0.989;fill-rule:evenodd;clip-rule:evenodd;enable-background:new    ;}
	.st8{opacity:0.986;fill-rule:evenodd;clip-rule:evenodd;enable-background:new    ;}
	.st9{opacity:0.962;fill-rule:evenodd;clip-rule:evenodd;enable-background:new    ;}
</style>
<g>
	<path class="st0" d="M268.1,39.5c-0.8,89.2,0,177.9,2.3,266.3c-4.4,3.2-9.4,5.5-14.9,6.9c-6.8-1.9-12.9-4.9-18.3-9.1
		c1.1-87,1.5-174.3,1.1-261.7c5.2-3.6,11-6.2,17.1-8C260.2,34.8,264.4,36.7,268.1,39.5z"/>
</g>
<g>
	<path class="st0" d="M268.1,39.5c10.3,4.8,20.2,10.1,29.7,16c0,78.5,0,157,0,235.4c-8.7,5.5-17.9,10.5-27.4,14.9
		C268.1,217.4,267.3,128.7,268.1,39.5z"/>
</g>
<g>
	<path class="st1" d="M238.4,41.8c0.4,87.4,0,174.7-1.1,261.7c-4.3-1.6-8.5-3.5-12.6-5.7c1.1-83,1.5-166,1.1-249.1
		C229.8,46.1,233.9,43.8,238.4,41.8z"/>
</g>
<g>
	<path class="st0" d="M225.8,48.6c0.4,83.1,0,166.2-1.1,249.1c-5.4-3.1-10.7-6.1-16-9.1c0-77,0-153.9,0-230.9
		C214.2,54.5,219.9,51.4,225.8,48.6z"/>
</g>
<g>
	<path class="st0" d="M297.8,55.5c11.4,5.7,22.8,11.4,34.3,17.1c-0.4,66.9,0,133.5,1.1,200c-11.6,6.4-23.4,12.5-35.4,18.3
		C297.8,212.5,297.8,134,297.8,55.5z"/>
</g>
<g>
	<path class="st2" d="M208.6,57.8c0,77,0,153.9,0,230.9c-7.8-2.9-15-6.7-21.7-11.4c1.5-34.3,2.3-68.9,2.3-104
		c0-35.1-0.4-70.2-1.1-105.1C194.9,64.6,201.8,61.2,208.6,57.8z"/>
</g>
<g>
	<path class="st2" d="M188.1,68.1c0.8,35,1.1,70,1.1,105.1c0,35.1-0.8,69.7-2.3,104c-4.9-1.7-9.5-4-13.7-6.9
		c1.1-64.6,1.5-129.3,1.1-194.3C178.5,72.8,183.1,70.2,188.1,68.1z"/>
</g>
<g>
	<path class="st3" d="M174.4,76.1c0.4,65,0,129.7-1.1,194.3c-9.7-4.6-19.2-9.6-28.6-14.9c0-54.9,0-109.7,0-164.6
		C154.2,85.4,164.1,80.4,174.4,76.1z"/>
</g>
<g>
	<path class="st3" d="M332.1,72.6c10.5,5.4,20.8,11.2,30.9,17.1c-0.8,55.9-1.5,111.9-2.3,168c-8.8,5.5-17.9,10.5-27.4,14.9
		C332.1,206.2,331.7,139.5,332.1,72.6z"/>
</g>
<g>
	<path class="st3" d="M362.9,89.8c4.3,1.6,8.5,3.5,12.6,5.7c0,51.8,0,103.6,0,155.4c-4.8,2.6-9.8,4.9-14.9,6.9
		C361.4,201.7,362.2,145.7,362.9,89.8z"/>
</g>
<g>
	<path class="st3" d="M144.6,90.9c0,54.9,0,109.7,0,164.6c-10.3-4.8-20.2-10.1-29.7-16c0-44.2,0-88.4,0-132.6
		C124.5,101.2,134.4,95.8,144.6,90.9z"/>
</g>
<g>
	<path class="st3" d="M375.5,95.5c5.7,2.6,11,5.7,16,9.1c-1.5,45.7-1.5,91.4,0,137.1c-5,3.5-10.3,6.5-16,9.1
		C375.5,199.1,375.5,147.3,375.5,95.5z"/>
</g>
<g>
	<path class="st4" d="M391.5,104.6c10.2,4.4,20.1,9.3,29.7,14.9c-1.5,35.8-1.5,71.6,0,107.4c-9.6,5.6-19.5,10.5-29.7,14.9
		C390,196.1,390,150.4,391.5,104.6z"/>
</g>
<g>
	<path class="st5" d="M114.9,106.9c0,44.2,0,88.4,0,132.6c-9.8-4.5-19.3-9.5-28.6-14.9c-0.8-34-1.5-67.9-2.3-101.7
		C94.2,117.3,104.5,112,114.9,106.9z"/>
</g>
<g>
	<path class="st6" d="M421.2,119.5c11.3,5.8,22.3,11.9,33.1,18.3c-0.4,23.8,0,47.4,1.1,70.9c-11.4,6.1-22.8,12.2-34.3,18.3
		C419.7,191.1,419.7,155.3,421.2,119.5z"/>
</g>
<g>
	<path class="st7" d="M84.1,122.9c0.8,33.8,1.5,67.7,2.3,101.7c-11.8-5.5-23.2-11.6-34.3-18.3c-1.5-22.1-1.5-44.2,0-66.3
		C62.3,133.8,73,128.1,84.1,122.9z"/>
</g>
<g>
	<path class="st8" d="M454.4,137.8c10.8,4.5,21.1,9.8,30.9,16c-1.1,13.1-1.5,26.5-1.1,40c-9.3,5.2-18.9,10.2-28.6,14.9
		C454.4,185.2,454,161.6,454.4,137.8z"/>
</g>
<g>
	<path class="st8" d="M52.1,140.1c-1.5,22.1-1.5,44.2,0,66.3c-10.8-4.5-21.1-9.8-30.9-16c0-11.4,0-22.9,0-34.3
		C31.3,150.5,41.6,145.1,52.1,140.1z"/>
</g>
<g>
	<path class="st6" d="M21.2,156.1c0,11.4,0,22.9,0,34.3c-1.1,0.1-2.1-0.3-2.9-1.1c-0.4,41.9-0.8,83.8-1.1,125.7
		c-5.7,6.1-11.4,6.1-17.1,0c-0.8-48.8-0.8-97.5,0-146.3c0.4-1,1-2,1.7-2.9C8.3,162.5,14.8,159.3,21.2,156.1z"/>
</g>
<g>
	<path class="st9" d="M485.2,153.8c8.3,3.4,16.3,7.4,24,12c3,5,3,9.9,0,14.9c-8.2,4.7-16.6,9.1-25.1,13.1
		C483.7,180.2,484.1,166.9,485.2,153.8z"/>
</g>
<g>
	<path class="st4" d="M116.1,260.1c-1.1,47.8-1.5,95.8-1.1,144c-9.5-4.7-19-9.5-28.6-14.3c-1.3-1.3-2.7-2.7-4-4
		c-0.8-48-0.8-96,0-144C93.6,248.1,104.8,254.2,116.1,260.1z"/>
</g>
<g>
	<path class="st3" d="M412.1,396.1c0.4-48.2,0-96.2-1.1-144c5.6-3.8,11.5-7.3,17.7-10.3c0.8,48,0.8,96,0,144
		C423.8,390.2,418.2,393.7,412.1,396.1z"/>
</g>
<g>
	<path class="st4" d="M410.9,252.1c1.1,47.8,1.5,95.8,1.1,144c-7.1,4.1-14.3,7.9-21.7,11.4c0-48.4,0-96.8,0-145.1
		C396.9,258.3,403.7,254.9,410.9,252.1z"/>
</g>
<g>
	<path class="st3" d="M116.1,260.1c9.7,4.6,19.2,9.6,28.6,14.9c0.4,48.2,0,96.2-1.1,144c-9.8-4.5-19.3-9.5-28.6-14.9
		C114.5,355.9,114.9,307.9,116.1,260.1z"/>
</g>
<g>
	<path class="st3" d="M390.4,262.4c0,48.4,0,96.8,0,145.1c-4.3,2.8-8.9,5.1-13.7,6.9c-0.4-47.8-1.5-95.4-3.4-142.9
		C378.7,268.2,384.4,265.1,390.4,262.4z"/>
</g>
<g>
	<path class="st4" d="M373.2,271.5c1.9,47.4,3,95,3.4,142.9c-5,3.2-10.3,5.9-16,8c1.5-48.1,1.5-96.1,0-144
		C364.6,275.8,368.8,273.5,373.2,271.5z"/>
</g>
<g>
	<path class="st3" d="M144.6,274.9c10.5,5,20.8,10.4,30.9,16c-1.1,47.9-1.5,95.9-1.1,144c-10.8-4.5-21.1-9.8-30.9-16
		C144.6,371.1,145,323.1,144.6,274.9z"/>
</g>
<g>
	<path class="st2" d="M360.6,278.4c1.5,47.9,1.5,95.9,0,144c-9.3,5.6-18.8,10.9-28.6,16c0.8-48.4,0-96.4-2.3-144
		C339.9,288.7,350.2,283.4,360.6,278.4z"/>
</g>
<g>
	<path class="st4" d="M175.5,290.9c5,2.1,9.6,4.8,13.7,8c0.4,48.1,0,96.1-1.1,144c-5-2.1-9.6-4.8-13.7-8
		C174,386.8,174.4,338.8,175.5,290.9z"/>
</g>
<g>
	<path class="st4" d="M329.8,294.4c2.3,47.6,3,95.6,2.3,144c-10.7,5.3-21.4,10.7-32,16c-2.3-47.2-3-94.8-2.3-142.9
		C308.1,305.2,318.7,299.5,329.8,294.4z"/>
</g>
<g>
	<path class="st4" d="M189.2,298.9c7.2,2.8,14.1,6.3,20.6,10.3c-0.8,47.9-1.5,95.9-2.3,144c-6.3-3.7-12.8-7.1-19.4-10.3
		C189.2,395,189.6,347,189.2,298.9z"/>
</g>
<g>
	<path class="st3" d="M209.8,309.2c9.7,4.6,19.2,9.6,28.6,14.9c0.4,48.2,0,96.2-1.1,144c-9.9-4.9-19.8-9.9-29.7-14.9
		C208.3,405.1,209,357.1,209.8,309.2z"/>
</g>
<g>
	<path class="st3" d="M297.8,311.5c-0.8,48,0,95.6,2.3,142.9c-10.3,6.3-20.9,12-32,17.1c0-48.4,0-96.8,0-145.1
		C277.7,320.8,287.6,315.9,297.8,311.5z"/>
</g>
<g>
	<path class="st4" d="M238.4,324.1c9.5,6.3,19.4,7.1,29.7,2.3c0,48.4,0,96.8,0,145.1c-3.7,2.8-7.9,4.7-12.6,5.7
		c-6.4-2.5-12.5-5.5-18.3-9.1C238.4,420.3,238.7,372.3,238.4,324.1z"/>
</g>
</svg>
