<?xml version="1.0" encoding="UTF-8"?>
<!DOCTYPE svg PUBLIC "-//W3C//DTD SVG 1.1//EN" "http://www.w3.org/Graphics/SVG/1.1/DTD/svg11.dtd">
<svg xmlns="http://www.w3.org/2000/svg" version="1.1" width="512px" height="512px" style="shape-rendering:geometricPrecision; text-rendering:geometricPrecision; image-rendering:optimizeQuality; fill-rule:evenodd; clip-rule:evenodd" xmlns:xlink="http://www.w3.org/1999/xlink">
<g><path style="opacity:0.977" fill="#000000" d="M 223.5,-0.5 C 237.5,-0.5 251.5,-0.5 265.5,-0.5C 291.485,5.98594 307.652,22.3193 314,48.5C 314.667,62.5 314.667,76.5 314,90.5C 304.256,125.639 281.09,141.972 244.5,139.5C 207.91,141.972 184.744,125.639 175,90.5C 174.333,76.5 174.333,62.5 175,48.5C 181.348,22.3193 197.515,5.98594 223.5,-0.5 Z M 234.5,39.5 C 243.219,39.2026 251.886,39.7026 260.5,41C 266.667,43.1667 270.833,47.3333 273,53.5C 273.667,64.1667 273.667,74.8333 273,85.5C 267.039,96.8966 257.539,101.563 244.5,99.5C 236.145,100.224 228.478,98.3903 221.5,94C 219.044,91.5925 217.211,88.7591 216,85.5C 215.333,74.8333 215.333,64.1667 216,53.5C 219.416,45.0567 225.583,40.39 234.5,39.5 Z"/></g>
<g><path style="opacity:0.973" fill="#000000" d="M 511.5,164.5 C 511.5,168.5 511.5,172.5 511.5,176.5C 510.163,179.991 508.163,183.157 505.5,186C 500.666,189.252 495.666,192.252 490.5,195C 489.941,195.725 489.608,196.558 489.5,197.5C 491.878,205.322 492.878,213.322 492.5,221.5C 492.629,230.323 491.796,238.99 490,247.5C 495.25,250.541 500.417,253.708 505.5,257C 508.163,259.843 510.163,263.009 511.5,266.5C 511.5,270.5 511.5,274.5 511.5,278.5C 506.443,290.362 497.443,294.862 484.5,292C 478.918,288.96 473.418,285.793 468,282.5C 456.466,293.352 442.966,300.685 427.5,304.5C 427.666,312.174 427.5,319.841 427,327.5C 425.167,334.667 420.667,339.167 413.5,341C 401.537,343.601 393.037,339.434 388,328.5C 387.056,320.516 386.223,312.516 385.5,304.5C 370.38,300.029 357.213,292.362 346,281.5C 340.415,285.377 334.582,288.877 328.5,292C 308.333,294.5 299.5,285.667 302,265.5C 303.439,262.397 305.273,259.564 307.5,257C 313.669,253.416 319.669,249.583 325.5,245.5C 321.5,229.5 321.5,213.5 325.5,197.5C 320.168,193.499 314.502,189.999 308.5,187C 300.998,178.887 299.498,169.721 304,159.5C 310.869,150.613 319.703,148.113 330.5,152C 336.187,155.339 341.854,158.339 347.5,161C 358.015,150.072 370.681,142.739 385.5,139C 386.216,131.205 387.049,123.372 388,115.5C 390.838,105.824 397.338,101.157 407.5,101.5C 417.308,101.647 423.808,106.313 427,115.5C 427.169,123.188 427.669,130.855 428.5,138.5C 443.469,142.481 456.469,149.814 467.5,160.5C 473.373,157.064 479.373,153.897 485.5,151C 498.084,148.455 506.751,152.955 511.5,164.5 Z M 399.5,177.5 C 426.542,175.589 443.709,187.589 451,213.5C 452.84,244.499 438.34,262.166 407.5,266.5C 376.66,262.166 362.16,244.499 364,213.5C 368.681,194.319 380.515,182.319 399.5,177.5 Z"/></g>
<g><path style="opacity:0.978" fill="#000000" d="M 237.5,174.5 C 246.293,172.932 253.793,175.266 260,181.5C 261.275,183.717 262.275,186.051 263,188.5C 263.667,233.5 263.667,278.5 263,323.5C 261.264,330.237 257.097,334.737 250.5,337C 238.176,339.919 229.343,335.752 224,324.5C 223.5,299.169 223.333,273.836 223.5,248.5C 198.831,248.333 174.164,248.5 149.5,249C 121.999,254.832 103.499,270.999 94,297.5C 92.1729,306.421 90.8396,315.421 90,324.5C 84.6574,335.752 75.8241,339.919 63.5,337C 53.3272,332.494 48.9939,324.661 50.5,313.5C 53.9234,265.798 77.59,232.632 121.5,214C 129.569,210.899 137.902,208.899 146.5,208C 172.165,207.5 197.831,207.333 223.5,207.5C 223.109,200.079 223.609,192.746 225,185.5C 227.708,180.079 231.875,176.413 237.5,174.5 Z"/></g>
<g><path style="opacity:0.976" fill="#000000" d="M 90.5,511.5 C 76.5,511.5 62.5,511.5 48.5,511.5C 22.5,504.833 6.16667,488.5 -0.5,462.5C -0.5,448.5 -0.5,434.5 -0.5,420.5C 5.98594,394.515 22.3193,378.348 48.5,372C 62.5,371.333 76.5,371.333 90.5,372C 125.418,381.786 142.084,404.953 140.5,441.5C 141.883,478.068 125.216,501.401 90.5,511.5 Z M 59.5,411.5 C 91.3205,406.487 104.487,419.82 99,451.5C 97.8333,463.333 91.3333,469.833 79.5,471C 72.8333,471.667 66.1667,471.667 59.5,471C 50.3626,470.519 44.1959,466.019 41,457.5C 40.3333,446.833 40.3333,436.167 41,425.5C 44.7733,417.544 50.9399,412.877 59.5,411.5 Z"/></g>
<g><path style="opacity:0.977" fill="#000000" d="M 265.5,511.5 C 251.5,511.5 237.5,511.5 223.5,511.5C 197.515,505.014 181.348,488.681 175,462.5C 174.333,448.5 174.333,434.5 175,420.5C 184.744,385.361 207.91,369.028 244.5,371.5C 281.09,369.028 304.256,385.361 314,420.5C 314.667,434.5 314.667,448.5 314,462.5C 307.652,488.681 291.485,505.014 265.5,511.5 Z M 234.5,411.5 C 243.219,411.203 251.886,411.703 260.5,413C 266.667,415.167 270.833,419.333 273,425.5C 281.443,463.724 266.61,478.557 228.5,470C 222.333,467.833 218.167,463.667 216,457.5C 215.333,446.833 215.333,436.167 216,425.5C 219.416,417.057 225.583,412.39 234.5,411.5 Z"/></g>
<g><path style="opacity:0.976" fill="#000000" d="M 440.5,511.5 C 426.5,511.5 412.5,511.5 398.5,511.5C 363.784,501.401 347.117,478.068 348.5,441.5C 346.916,404.953 363.582,381.786 398.5,372C 412.5,371.333 426.5,371.333 440.5,372C 466.667,378.167 482.833,394.333 489,420.5C 489.667,434.5 489.667,448.5 489,462.5C 482.652,488.681 466.485,505.014 440.5,511.5 Z M 409.5,411.5 C 418.219,411.203 426.886,411.703 435.5,413C 441.667,415.167 445.833,419.333 448,425.5C 448.667,436.167 448.667,446.833 448,457.5C 442.039,468.897 432.539,473.563 419.5,471.5C 397.833,473.167 387.833,463.167 389.5,441.5C 388.317,431.678 390.984,423.178 397.5,416C 401.301,413.584 405.301,412.084 409.5,411.5 Z"/></g>
</svg>
