<?xml version="1.0" encoding="utf-8"?>
<!-- Generator: Adobe Illustrator 27.1.0, SVG Export Plug-In . SVG Version: 6.00 Build 0)  -->
<svg version="1.1" id="Layer_1" xmlns="http://www.w3.org/2000/svg" xmlns:xlink="http://www.w3.org/1999/xlink" x="0px" y="0px"
	 viewBox="0 0 512 512" style="enable-background:new 0 0 512 512;" xml:space="preserve">
<style type="text/css">
	.st0{opacity:0.959;fill-rule:evenodd;clip-rule:evenodd;enable-background:new    ;}
	.st1{opacity:0.993;fill-rule:evenodd;clip-rule:evenodd;enable-background:new    ;}
</style>
<g>
	<path class="st0" d="M26.2,21.7c22.6-3.8,38.1,4.8,46.4,25.9c4.5,22.7-3.8,38.1-25.1,46.4C24.9,98.6,9.4,90.2,1.1,68.9
		C-3.2,46.1,5.1,30.4,26.2,21.7z"/>
</g>
<g>
	<path class="st1" d="M137.4,33.9c119.8-0.3,239.6,0,359.3,0.8c10.6,4.3,15.7,12.1,15.2,23.6c0.5,11.5-4.6,19.3-15.2,23.6
		c-119.8,1-239.6,1-359.3,0c-10.6-4.3-15.7-12.1-15.2-23.6C121.9,46.7,126.9,38.5,137.4,33.9z"/>
</g>
<g>
	<path class="st0" d="M26.2,216.6c22.6-3.8,38.1,4.8,46.4,25.9c4.5,22.7-3.8,38.1-25.1,46.4c-22.7,4.5-38.1-3.8-46.4-25.1
		C-3.2,241,5.1,225.3,26.2,216.6z"/>
</g>
<g>
	<path class="st1" d="M137.4,228.8c119.8-0.3,239.6,0,359.3,0.8c10.6,4.3,15.7,12.1,15.2,23.6c0.5,11.5-4.6,19.3-15.2,23.6
		c-119.8,1-239.6,1-359.3,0c-10.6-4.3-15.7-12.1-15.2-23.6C121.9,241.6,126.9,233.4,137.4,228.8z"/>
</g>
<g>
	<path class="st0" d="M26.2,411.5c22.6-3.8,38.1,4.8,46.4,25.9c4.5,22.7-3.8,38.1-25.1,46.4c-22.7,4.5-38.1-3.8-46.4-25.1
		C-3.2,435.9,5.1,420.2,26.2,411.5z"/>
</g>
<g>
	<path class="st1" d="M137.4,423.7c119.8-0.3,239.6,0,359.3,0.8c10.6,4.3,15.7,12.1,15.2,23.6c0.5,11.5-4.6,19.3-15.2,23.6
		c-119.8,1-239.6,1-359.3,0c-10.6-4.3-15.7-12.1-15.2-23.6C121.9,436.5,126.9,428.3,137.4,423.7z"/>
</g>
</svg>
