<?xml version="1.0" encoding="utf-8"?>
<!-- Generator: Adobe Illustrator 27.1.0, SVG Export Plug-In . SVG Version: 6.00 Build 0)  -->
<svg version="1.1" id="Layer_1" xmlns="http://www.w3.org/2000/svg" xmlns:xlink="http://www.w3.org/1999/xlink" x="0px" y="0px"
	 viewBox="0 0 512 512" style="enable-background:new 0 0 512 512;" xml:space="preserve">
<path d="M469.9,316.1c-18.3,8.2-37.5,12.9-57.5,14.4c-80.6-1.8-135.8-39.9-166-114.5c-18.3-68.3-2-126.6,49.1-175
	c1.2-2.4,2.4-4.8,3.6-7.2c4-15-1.1-25.7-15-31.8c-10.7-1.7-21.5-2.3-32.4-1.8C143,9.2,67.2,64,24.5,164.4
	C-5.9,254.9,7.3,338.5,64.1,414.9c73.7,86.9,165.8,115.4,276.3,85.7c82-25.4,136.3-78.8,163-160
	C500.5,321.2,489.4,312.9,469.9,316.1z"/>
</svg>
