<?xml version="1.0" encoding="UTF-8"?>
<!DOCTYPE svg PUBLIC "-//W3C//DTD SVG 1.1//EN" "http://www.w3.org/Graphics/SVG/1.1/DTD/svg11.dtd">
<svg xmlns="http://www.w3.org/2000/svg" version="1.1" width="512px" height="512px" style="shape-rendering:geometricPrecision; text-rendering:geometricPrecision; image-rendering:optimizeQuality; fill-rule:evenodd; clip-rule:evenodd" xmlns:xlink="http://www.w3.org/1999/xlink">
<g><path style="opacity:0.982" fill="#000000" d="M 266.5,-0.5 C 272.5,-0.5 278.5,-0.5 284.5,-0.5C 304.899,4.73173 317.899,17.5651 323.5,38C 335.272,37.9758 346.939,38.9758 358.5,41C 373.265,46.7637 382.765,57.2637 387,72.5C 387.5,85.1623 387.667,97.8289 387.5,110.5C 398.172,110.333 408.839,110.5 419.5,111C 440.004,113.504 453.171,124.67 459,144.5C 459.667,255.5 459.667,366.5 459,477.5C 454.318,495.348 443.151,506.681 425.5,511.5C 336.167,511.5 246.833,511.5 157.5,511.5C 139.849,506.681 128.682,495.348 124,477.5C 123.5,464.838 123.333,452.171 123.5,439.5C 110.829,439.667 98.1623,439.5 85.5,439C 67.6667,434.5 56.5,423.333 52,405.5C 51.0081,293.124 51.3415,180.79 53,68.5C 58.7637,53.735 69.2637,44.235 84.5,40C 132.139,38.7011 179.805,38.0344 227.5,38C 233.101,17.5651 246.101,4.73173 266.5,-0.5 Z M 273.5,31.5 C 287.663,33.1672 292.829,40.8339 289,54.5C 281.718,63.8685 273.384,64.8685 264,57.5C 257.327,45.1871 260.493,36.5205 273.5,31.5 Z M 92.5,71.5 C 137.501,71.3333 182.501,71.5 227.5,72C 216.268,82.5631 205.768,93.7297 196,105.5C 193.974,121.14 200.807,128.307 216.5,127C 218.725,126.439 220.725,125.439 222.5,124C 233.347,112.986 244.347,102.152 255.5,91.5C 281.185,100.548 301.852,94.0479 317.5,72C 327.167,71.3333 336.833,71.3333 346.5,72C 351.985,73.8253 354.819,77.6586 355,83.5C 355.667,187.5 355.667,291.5 355,395.5C 354.973,399.386 353.473,402.552 350.5,405C 263.915,406.661 177.248,406.995 90.5,406C 86.184,403.874 84.0173,400.374 84,395.5C 83.3333,291.5 83.3333,187.5 84,83.5C 84.3843,77.6363 87.2176,73.6363 92.5,71.5 Z M 387.5,143.5 C 397.839,143.334 408.172,143.5 418.5,144C 423.985,145.825 426.819,149.659 427,155.5C 427.667,259.5 427.667,363.5 427,467.5C 426.983,472.374 424.816,475.874 420.5,478C 334.5,478.667 248.5,478.667 162.5,478C 158.184,475.874 156.017,472.374 156,467.5C 155.5,458.173 155.334,448.839 155.5,439.5C 221.501,439.667 287.501,439.5 353.5,439C 371.333,434.5 382.5,423.333 387,405.5C 387.5,318.167 387.667,230.834 387.5,143.5 Z"/></g>
<g><path style="opacity:0.965" fill="#000000" d="M 129.5,182.5 C 189.501,182.333 249.501,182.5 309.5,183C 320.937,185.692 325.437,192.859 323,204.5C 321.167,209.667 317.667,213.167 312.5,215C 250.5,215.667 188.5,215.667 126.5,215C 115.329,209.489 112.496,200.989 118,189.5C 121.225,185.979 125.058,183.646 129.5,182.5 Z"/></g>
<g><path style="opacity:0.965" fill="#000000" d="M 129.5,262.5 C 189.501,262.333 249.501,262.5 309.5,263C 320.937,265.692 325.437,272.859 323,284.5C 321.167,289.667 317.667,293.167 312.5,295C 250.5,295.667 188.5,295.667 126.5,295C 115.329,289.489 112.496,280.989 118,269.5C 121.225,265.979 125.058,263.646 129.5,262.5 Z"/></g>
<g><path style="opacity:0.932" fill="#000000" d="M 241.5,334.5 C 257.697,336.559 262.864,345.226 257,360.5C 251.258,367.503 244.091,369.336 235.5,366C 227.115,359.432 225.282,351.265 230,341.5C 233.225,337.979 237.058,335.646 241.5,334.5 Z"/></g>
<g><path style="opacity:0.932" fill="#000000" d="M 305.5,334.5 C 321.697,336.559 326.864,345.226 321,360.5C 315.341,367.504 308.175,369.338 299.5,366C 291.115,359.392 289.281,351.225 294,341.5C 297.225,337.979 301.058,335.646 305.5,334.5 Z"/></g>
</svg>
