<?xml version="1.0" encoding="UTF-8"?>
<!DOCTYPE svg PUBLIC "-//W3C//DTD SVG 1.1//EN" "http://www.w3.org/Graphics/SVG/1.1/DTD/svg11.dtd">
<svg xmlns="http://www.w3.org/2000/svg" version="1.1" width="512px" height="512px" style="shape-rendering:geometricPrecision; text-rendering:geometricPrecision; image-rendering:optimizeQuality; fill-rule:evenodd; clip-rule:evenodd" xmlns:xlink="http://www.w3.org/1999/xlink">
<g><path style="opacity:0.987" fill="#000000" d="M 79.5,-0.5 C 90.1667,-0.5 100.833,-0.5 111.5,-0.5C 135.599,2.63258 156.433,12.6326 174,29.5C 181.929,38.3589 186.929,48.6922 189,60.5C 189.667,172.5 189.667,284.5 189,396.5C 188.197,399.244 187.197,401.911 186,404.5C 164.667,435.833 143.333,467.167 122,498.5C 117.01,504.725 110.843,509.059 103.5,511.5C 98.1667,511.5 92.8333,511.5 87.5,511.5C 80.2112,509.405 74.0445,505.405 69,499.5C 48.3907,468.559 27.3907,437.892 6,407.5C 3.54525,403.469 1.87858,399.136 1,394.5C 0.333333,283.833 0.333333,173.167 1,62.5C 5.48505,40.3738 17.6517,23.8738 37.5,13C 50.8749,6.1514 64.8749,1.6514 79.5,-0.5 Z M 90.5,64.5 C 102.79,63.6958 113.957,66.6958 124,73.5C 124.5,82.8274 124.666,92.1607 124.5,101.5C 105.167,101.5 85.8333,101.5 66.5,101.5C 66.3335,91.8276 66.5002,82.1609 67,72.5C 74.3003,67.9006 82.1337,65.2339 90.5,64.5 Z M 66.5,166.5 C 85.8333,166.5 105.167,166.5 124.5,166.5C 124.667,237.167 124.5,307.834 124,378.5C 114.333,392.5 104.667,406.5 95,420.5C 85.9139,406.66 76.5805,392.993 67,379.5C 66.5,308.501 66.3333,237.501 66.5,166.5 Z"/></g>
<g><path style="opacity:0.985" fill="#000000" d="M 238.5,2.5 C 306.501,2.33334 374.501,2.5 442.5,3C 481.862,11.3647 504.362,35.5314 510,75.5C 510.667,117.5 510.667,159.5 510,201.5C 506.058,232.236 490.225,254.403 462.5,268C 454.805,271.232 446.805,273.232 438.5,274C 390.833,274.667 343.167,274.667 295.5,274C 264.761,269.879 242.928,253.712 230,225.5C 226.977,218.097 224.977,210.431 224,202.5C 223.667,164.167 223.333,125.833 223,87.5C 217.413,77.9941 212.08,68.3274 207,58.5C 200.662,30.1632 211.162,11.4965 238.5,2.5 Z M 286.5,68.5 C 334.665,67.3351 382.998,67.1684 431.5,68C 437.891,69.3903 442.058,73.2236 444,79.5C 444.667,118.5 444.667,157.5 444,196.5C 443.004,202.159 439.838,205.993 434.5,208C 389.167,208.667 343.833,208.667 298.5,208C 294.212,205.708 291.378,202.208 290,197.5C 289.667,157.5 289.333,117.5 289,77.5C 288.594,74.2578 287.761,71.2578 286.5,68.5 Z"/></g>
<g><path style="opacity:0.972" fill="#000000" d="M 335.5,105.5 C 356.169,105.333 376.836,105.5 397.5,106C 416.613,111.711 425.113,124.544 423,144.5C 419.302,159.53 409.802,168.364 394.5,171C 375.833,171.667 357.167,171.667 338.5,171C 316.017,166.17 306.517,152.337 310,129.5C 314.217,116.778 322.717,108.778 335.5,105.5 Z"/></g>
</svg>
