<?xml version="1.0" encoding="UTF-8"?>
<!DOCTYPE svg PUBLIC "-//W3C//DTD SVG 1.1//EN" "http://www.w3.org/Graphics/SVG/1.1/DTD/svg11.dtd">
<svg xmlns="http://www.w3.org/2000/svg" version="1.1" width="512px" height="512px" style="shape-rendering:geometricPrecision; text-rendering:geometricPrecision; image-rendering:optimizeQuality; fill-rule:evenodd; clip-rule:evenodd" xmlns:xlink="http://www.w3.org/1999/xlink">
<g><path style="opacity:0.973" fill="#000000" d="M 233.5,-0.5 C 248.5,-0.5 263.5,-0.5 278.5,-0.5C 378.272,12.4494 449.438,64.4494 492,155.5C 502.135,180.377 508.635,206.043 511.5,232.5C 511.5,247.5 511.5,262.5 511.5,277.5C 499.016,377.807 447.016,449.307 355.5,492C 330.316,502.296 304.316,508.796 277.5,511.5C 262.5,511.5 247.5,511.5 232.5,511.5C 130.434,498.225 58.6008,444.558 17,350.5C 8.0309,327.127 2.19757,303.127 -0.5,278.5C -0.5,263.167 -0.5,247.833 -0.5,232.5C 9.30698,148.242 49.6403,83.0754 120.5,37C 155.422,15.9704 193.088,3.4704 233.5,-0.5 Z M 243.5,42.5 C 335.673,41.9498 403.506,81.9498 447,162.5C 478.377,232.213 475.043,300.213 437,366.5C 394.447,431.71 333.947,465.71 255.5,468.5C 179.577,465.798 120.077,433.465 77,371.5C 32.9306,297.819 31.2639,223.152 72,147.5C 111.767,84.3544 168.933,49.3544 243.5,42.5 Z"/></g>
<g><path style="opacity:0.969" fill="#000000" d="M 247.5,105.5 C 296.371,105.225 327.204,128.558 340,175.5C 345.12,217.093 329.62,248.26 293.5,269C 285.402,275.693 280.235,284.193 278,294.5C 277.907,305.558 277.24,316.558 276,327.5C 267.121,342.344 255.288,345.178 240.5,336C 234.14,328.149 231.807,319.149 233.5,309C 232.795,270.732 249.128,242.399 282.5,224C 298.71,208.511 301.877,190.678 292,170.5C 279.363,152.063 262.196,145.896 240.5,152C 222.378,160.726 213.211,175.226 213,195.5C 208.406,210.216 198.573,215.716 183.5,212C 173.911,207.672 169.245,200.172 169.5,189.5C 174.501,141.837 200.501,113.837 247.5,105.5 Z"/></g>
<g><path style="opacity:0.94" fill="#000000" d="M 251.5,361.5 C 271.268,362.04 279.435,372.04 276,391.5C 269.998,403.414 260.498,407.581 247.5,404C 235.586,397.998 231.419,388.498 235,375.5C 238.283,368.124 243.783,363.457 251.5,361.5 Z"/></g>
</svg>
