<?xml version="1.0" encoding="UTF-8"?>
<!DOCTYPE svg PUBLIC "-//W3C//DTD SVG 1.1//EN" "http://www.w3.org/Graphics/SVG/1.1/DTD/svg11.dtd">
<svg xmlns="http://www.w3.org/2000/svg" version="1.1" width="512px" height="512px" style="shape-rendering:geometricPrecision; text-rendering:geometricPrecision; image-rendering:optimizeQuality; fill-rule:evenodd; clip-rule:evenodd" xmlns:xlink="http://www.w3.org/1999/xlink">
<g><path style="opacity:0.97" fill="#000000" d="M 195.5,-0.5 C 209.167,-0.5 222.833,-0.5 236.5,-0.5C 310.404,9.18974 366.57,45.8564 405,109.5C 437.455,171.143 441.122,234.476 416,299.5C 407.357,319.467 396.191,337.801 382.5,354.5C 424.153,396.653 465.986,438.653 508,480.5C 509.459,482.432 510.625,484.432 511.5,486.5C 511.5,490.5 511.5,494.5 511.5,498.5C 508.833,504.5 504.5,508.833 498.5,511.5C 494.5,511.5 490.5,511.5 486.5,511.5C 484.432,510.625 482.432,509.459 480.5,508C 438.653,465.986 396.653,424.153 354.5,382.5C 290.639,432.235 219.972,444.735 142.5,420C 78.9104,395.41 35.077,351.244 11,287.5C 5.42068,270.753 1.58734,253.753 -0.5,236.5C -0.5,222.833 -0.5,209.167 -0.5,195.5C 7.40166,129.508 38.0683,77.0076 91.5,38C 122.972,16.426 157.639,3.59264 195.5,-0.5 Z M 212.5,37.5 C 282.894,39.5934 336.061,70.5934 372,130.5C 400.946,188.008 400.613,245.342 371,302.5C 335.767,360.716 283.933,391.049 215.5,393.5C 139.267,390.054 84.767,354.054 52,285.5C 26.2437,216.706 36.577,154.039 83,97.5C 118.055,60.0567 161.222,40.0567 212.5,37.5 Z"/></g>
<g><path style="opacity:0.963" fill="#000000" d="M 126.5,109.5 C 145.348,113.199 150.848,123.866 143,141.5C 121.151,164.043 111.818,191.043 115,222.5C 109.524,237.757 99.3573,241.923 84.5,235C 81.5665,232.736 79.3999,229.902 78,226.5C 71.6965,182.23 84.5298,144.396 116.5,113C 119.85,111.514 123.184,110.347 126.5,109.5 Z"/></g>
</svg>
