<?xml version="1.0" encoding="utf-8"?>
<!-- Generator: Adobe Illustrator 27.1.0, SVG Export Plug-In . SVG Version: 6.00 Build 0)  -->
<svg version="1.1" id="Layer_1" xmlns="http://www.w3.org/2000/svg" xmlns:xlink="http://www.w3.org/1999/xlink" x="0px" y="0px"
	 viewBox="0 0 512 512" style="enable-background:new 0 0 512 512;" xml:space="preserve">
<style type="text/css">
	.st0{opacity:0.982;fill-rule:evenodd;clip-rule:evenodd;enable-background:new    ;}
	.st1{opacity:0.981;fill-rule:evenodd;clip-rule:evenodd;enable-background:new    ;}
	.st2{opacity:0.983;fill-rule:evenodd;clip-rule:evenodd;enable-background:new    ;}
</style>
<g>
	<path class="st0" d="M179.3-0.5c50.8-0.2,101.7,0,152.5,0.5c12.7,4.9,18.3,14.1,16.9,27.8c-2.2,8.7-7.4,14.7-15.8,18
		c-51.6,0.7-103.1,0.7-154.7,0c-13.7-6.2-18.6-16.5-14.7-31C166.5,7.2,171.7,2.1,179.3-0.5z"/>
</g>
<g>
	<path class="st1" d="M64.9,92.1c127.1-0.2,254.2,0,381.2,0.5c15.1,4.9,21.1,15.3,18,31c-4.1,10.1-11.5,15.6-22.3,16.3
		c0.2,89.3,0,178.6-0.5,267.9c-6.9,46.1-31.8,78.2-74.6,96.4c-9.2,3.2-18.6,5.4-28.3,6.5c-55.2,0.7-110.4,0.7-165.6,0
		c-49.1-7.4-81.9-34.4-98.6-81.1c-2-7.2-3.5-14.4-4.4-21.8c-0.5-89.3-0.7-178.6-0.5-267.9c-18.1-2.8-25.6-13.4-22.3-31.6
		C50.4,100.1,56.4,94.6,64.9,92.1z M116.1,140c92.9,0,185.9,0,278.8,0c0.2,85,0,169.9-0.5,254.9c-1.3,26.4-13.1,46.5-35.4,60.5
		c-10.2,5.6-21.1,8.5-32.7,8.7c-47.2,0.7-94.4,0.7-141.6,0c-28-1.8-48.5-15.1-61.5-39.8c-4.3-9.3-6.4-19.1-6.5-29.4
		C116.1,310,115.9,225,116.1,140z"/>
</g>
<g>
	<path class="st2" d="M203.2,208.7c14.3-1.8,24,4,28.9,17.4c0.7,50.5,0.7,100.9,0,151.4c-4.8,14.5-14.8,20.1-30,16.9
		c-8.2-2.4-13.4-7.6-15.8-15.8c-0.7-51.2-0.7-102.4,0-153.6C189.1,216.5,194.7,211,203.2,208.7z"/>
</g>
<g>
	<path class="st2" d="M295.8,208.7c13.9-1.7,23.5,3.8,28.9,16.3c0.7,51.6,0.7,103.1,0,154.7c-7,14.1-18.1,18.6-33.2,13.6
		c-6.4-3.4-10.5-8.7-12.5-15.8c-0.7-50.5-0.7-100.9,0-151.4C281.8,217.5,287.5,211.7,295.8,208.7z"/>
</g>
</svg>
