<?xml version="1.0" encoding="utf-8"?>
<!-- Generator: Adobe Illustrator 27.1.0, SVG Export Plug-In . SVG Version: 6.00 Build 0)  -->
<svg version="1.1" id="Layer_1" xmlns="http://www.w3.org/2000/svg" xmlns:xlink="http://www.w3.org/1999/xlink" x="0px" y="0px"
	 viewBox="0 0 512 512" style="enable-background:new 0 0 512 512;" xml:space="preserve">
<style type="text/css">
	.st0{opacity:0.973;fill-rule:evenodd;clip-rule:evenodd;enable-background:new    ;}
</style>
<g>
	<path class="st0" d="M239,0.5c11.3,0,22.7,0,34,0c63,10.2,104.9,45.5,125.5,106c14.3,56.7,1.4,106.2-38.5,148.5
		c-5.8,5.7-12.1,10.7-19,15c87.3,33.7,142.5,95.8,165.5,186.5c2.3,11.4,4.2,22.7,5.5,34c0,7.3,0,14.7,0,22c-13.7,0-27.3,0-41,0
		c-2.3-81.7-38-143.9-107-186.5c-60.2-32.8-122.5-37.5-187-14c-71.4,30.5-115.5,83.7-132.5,159.5c-2.7,13.5-3.9,27.2-3.5,41
		c-13.7,0-27.3,0-41,0c0-7.3,0-14.7,0-22C10.6,400.4,54.9,332.6,133,287c12.4-6.2,25.1-11.9,38-17c-46.4-34.3-67.2-80.5-62.5-138.5
		C117.6,72.4,149.8,31.5,205,9C216.2,5.2,227.6,2.4,239,0.5z M242,41.5c46.8-3.3,82.6,14.7,107.5,54c18,35.3,18,70.7,0,106
		C324.7,241,288.8,258.8,242,255c-42.6-7.4-71.8-31.2-87.5-71.5C139.8,128.8,155.9,86,203,55C215.4,48.4,228.4,43.9,242,41.5z"/>
</g>
</svg>
