<?xml version="1.0" encoding="UTF-8"?>
<!DOCTYPE svg PUBLIC "-//W3C//DTD SVG 1.1//EN" "http://www.w3.org/Graphics/SVG/1.1/DTD/svg11.dtd">
<svg xmlns="http://www.w3.org/2000/svg" version="1.1" width="512px" height="512px" style="shape-rendering:geometricPrecision; text-rendering:geometricPrecision; image-rendering:optimizeQuality; fill-rule:evenodd; clip-rule:evenodd" xmlns:xlink="http://www.w3.org/1999/xlink">
<g><path style="opacity:0.971" fill="#000000" d="M 511.5,382.5 C 511.5,390.833 511.5,399.167 511.5,407.5C 503.792,446.375 480.459,469.875 441.5,478C 317.5,478.667 193.5,478.667 69.5,478C 30.572,469.906 7.23868,446.406 -0.5,407.5C -0.5,399.167 -0.5,390.833 -0.5,382.5C 1.96168,371.301 6.12834,360.635 12,350.5C 70.3333,256.167 128.667,161.833 187,67.5C 208.936,39.0685 237.769,27.9018 273.5,34C 294.478,39.0622 311.311,50.2288 324,67.5C 367.333,137.5 410.667,207.5 454,277.5C 460.711,291.509 457.211,302.009 443.5,309C 433.982,311.493 426.148,308.993 420,301.5C 376.333,230.833 332.667,160.167 289,89.5C 276.823,75.4416 261.657,70.6083 243.5,75C 231.287,79.2087 222.121,87.0421 216,98.5C 160,189.167 104,279.833 48,370.5C 34.66,394.631 38.8267,415.131 60.5,432C 64.9499,434.261 69.6165,435.928 74.5,437C 195.5,437.667 316.5,437.667 437.5,437C 462.047,429.087 472.88,412.254 470,386.5C 461.786,363.712 469.62,352.545 493.5,353C 499.247,355.079 503.414,358.912 506,364.5C 508.168,370.531 510.001,376.531 511.5,382.5 Z"/></g>
<g><path style="opacity:0.971" fill="#000000" d="M 249.5,142.5 C 264.422,140.614 273.256,146.947 276,161.5C 276.667,211.167 276.667,260.833 276,310.5C 274.752,322.916 267.919,329.249 255.5,329.5C 245.79,329.288 239.29,324.622 236,315.5C 235.333,262.5 235.333,209.5 236,156.5C 238.352,149.65 242.852,144.983 249.5,142.5 Z"/></g>
<g><path style="opacity:0.95" fill="#000000" d="M 249.5,359.5 C 264.912,357.691 273.912,364.358 276.5,379.5C 273.312,396.499 263.312,402.665 246.5,398C 236,391.505 232.834,382.339 237,370.5C 240.122,365.539 244.288,361.872 249.5,359.5 Z"/></g>
</svg>
