<?xml version="1.0" encoding="UTF-8"?>
<!DOCTYPE svg PUBLIC "-//W3C//DTD SVG 1.1//EN" "http://www.w3.org/Graphics/SVG/1.1/DTD/svg11.dtd">
<svg xmlns="http://www.w3.org/2000/svg" version="1.1" width="512px" height="512px" style="shape-rendering:geometricPrecision; text-rendering:geometricPrecision; image-rendering:optimizeQuality; fill-rule:evenodd; clip-rule:evenodd" xmlns:xlink="http://www.w3.org/1999/xlink">
<g><path style="opacity:0.991" fill="#000000" d="M 56.5,-0.5 C 64.5,-0.5 72.5,-0.5 80.5,-0.5C 94.8842,2.52608 107.551,9.02608 118.5,19C 163.639,65.1391 209.139,110.972 255,156.5C 300.5,111 346,65.5 391.5,20C 402.372,9.73224 415.039,2.8989 429.5,-0.5C 437.5,-0.5 445.5,-0.5 453.5,-0.5C 484.756,6.42322 504.089,25.4232 511.5,56.5C 511.5,64.5 511.5,72.5 511.5,80.5C 509.098,92.1785 504.265,102.845 497,112.5C 449.5,160 402,207.5 354.5,255C 401.639,303.139 449.139,350.972 497,398.5C 504.319,408.131 509.153,418.798 511.5,430.5C 511.5,438.167 511.5,445.833 511.5,453.5C 504.577,484.756 485.577,504.089 454.5,511.5C 446.5,511.5 438.5,511.5 430.5,511.5C 418.822,509.098 408.155,504.265 398.5,497C 350.972,449.139 303.139,401.639 255,354.5C 207.5,402 160,449.5 112.5,497C 102.416,504.078 91.4158,508.911 79.5,511.5C 72.1667,511.5 64.8333,511.5 57.5,511.5C 26.6919,504.692 7.35857,486.025 -0.5,455.5C -0.5,446.833 -0.5,438.167 -0.5,429.5C 2.81123,415.547 9.31123,403.213 19,392.5C 64.8333,346.667 110.667,300.833 156.5,255C 110.972,209.139 65.1391,163.639 19,118.5C 9.31123,107.787 2.81123,95.4533 -0.5,81.5C -0.5,73.5 -0.5,65.5 -0.5,57.5C 6.42322,26.2438 25.4232,6.9105 56.5,-0.5 Z"/></g>
</svg>
